<?xml version="1.0" standalone="no"?>
<!DOCTYPE svg PUBLIC "-//W3C//DTD SVG 20010904//EN"
 "http://www.w3.org/TR/2001/REC-SVG-20010904/DTD/svg10.dtd">
<svg version="1.0" xmlns="http://www.w3.org/2000/svg"
 width="500.000000pt" height="749.000000pt" viewBox="0 0 500.000000 749.000000"
 preserveAspectRatio="xMidYMid meet">
<metadata>
Created by potrace 1.16, written by Peter Selinger 2001-2019
</metadata>
<g transform="translate(0.000000,749.000000) scale(0.100000,-0.100000)"
fill="#000000" stroke="none">
<path d="M0 5922 c0 -1206 3 -1571 12 -1580 9 -9 9 -15 0 -24 -19 -19 -15 -60
6 -56 9 1 22 -1 28 -5 7 -4 17 0 24 8 26 32 53 10 30 -25 -8 -12 -10 -12 -16
3 -6 17 -8 16 -21 -3 -8 -11 -22 -20 -32 -20 -27 0 -31 -35 -30 -300 l1 -234
27 -36 c16 -19 26 -41 24 -47 -3 -7 0 -13 6 -13 21 0 26 -2 38 -12 18 -14 16
-53 -3 -72 -19 -20 -44 -21 -44 -2 0 7 -7 19 -15 26 -8 7 -13 15 -11 19 2 3
-2 15 -10 25 -12 17 -14 -1 -13 -140 l0 -160 40 -34 c40 -32 40 -34 19 -45
l-21 -11 27 -27 c16 -16 38 -27 53 -27 15 0 36 -6 46 -14 14 -10 25 -11 47 -2
34 13 35 19 5 39 -13 9 -38 30 -56 48 -24 24 -29 34 -19 40 7 4 9 11 5 15 -3
4 -15 1 -24 -7 -16 -13 -17 -12 -4 4 12 15 11 20 -6 40 -11 12 -18 28 -16 35
3 7 -11 29 -31 48 -39 38 -42 46 -23 62 48 40 107 11 107 -53 0 -23 5 -35 14
-35 41 0 114 -103 85 -121 -7 -4 -17 -5 -21 -3 -4 3 -8 -2 -8 -11 0 -8 19 -36
42 -61 40 -43 42 -50 43 -106 1 -56 3 -60 33 -80 18 -11 40 -34 48 -51 15 -27
15 -31 0 -39 -9 -5 -16 -17 -16 -27 0 -10 -7 -24 -14 -31 -12 -9 -19 -3 -39
37 -27 52 -72 97 -87 88 -5 -3 -26 10 -46 30 -34 34 -35 37 -21 59 14 21 13
23 -21 42 -23 12 -37 15 -39 8 -2 -6 -14 -9 -26 -7 -13 3 -34 -4 -50 -17 -23
-19 -27 -29 -27 -75 0 -30 5 -57 10 -60 6 -3 10 -16 10 -28 0 -18 -2 -19 -10
-7 -13 21 -13 -5 0 -30 7 -13 7 -21 0 -25 -6 -4 -10 -60 -10 -135 l0 -128 25
-6 c14 -4 23 -11 19 -17 -9 -14 25 -49 64 -66 33 -14 72 -4 72 18 0 6 -4 7
-10 4 -6 -3 -7 1 -4 9 8 21 29 20 65 -1 34 -20 35 -49 1 -46 -27 3 -28 -15 -4
-60 10 -20 24 -32 32 -29 13 3 13 2 0 -7 -24 -17 -47 -13 -99 20 -33 20 -48
35 -44 45 3 7 1 15 -3 15 -61 8 -65 8 -54 -6 16 -20 3 -37 -22 -29 -17 5 -20
3 -15 -10 4 -10 0 -31 -9 -48 -12 -22 -12 -28 -2 -22 10 6 11 5 1 -7 -8 -10
-12 -75 -12 -206 0 -175 6 -222 24 -193 4 6 11 7 17 4 7 -5 9 -1 5 9 -3 10 -2
17 3 17 6 0 10 -8 10 -19 0 -13 -9 -20 -30 -24 l-30 -6 0 -104 c0 -57 3 -107
7 -110 3 -4 13 -1 21 5 16 13 31 18 81 22 18 2 37 10 42 17 7 10 11 11 16 3 6
-9 12 -8 21 2 11 12 10 14 -4 14 -10 0 -15 3 -11 6 3 3 -2 15 -12 26 -21 22
-17 55 8 60 9 2 33 -3 53 -10 44 -17 58 -42 25 -42 -29 0 -46 -17 -40 -39 3
-14 12 -17 36 -13 18 2 69 4 114 3 78 -2 82 -1 112 28 25 24 41 31 72 31 26 0
42 5 45 15 4 8 12 15 19 15 7 0 18 7 25 15 14 17 50 21 50 6 0 -6 11 -22 25
-37 14 -15 25 -32 25 -38 0 -6 16 6 35 26 41 43 43 51 11 38 -21 -7 -26 -6
-31 10 -4 11 -4 24 0 30 7 12 -43 70 -61 70 -7 0 -22 10 -33 21 -12 13 -28 20
-38 17 -15 -4 -18 1 -17 21 0 14 -3 33 -7 41 -4 8 -10 23 -13 33 -4 11 -16 17
-35 17 -16 0 -32 4 -36 9 -7 12 15 26 24 15 6 -9 51 -17 51 -9 0 9 -70 34 -83
30 -16 -6 -31 5 -46 34 -11 20 -15 22 -27 9 -8 -8 -16 -24 -17 -35 0 -13 -6
-19 -14 -16 -15 6 -18 43 -4 43 5 0 8 12 5 26 -4 21 -2 25 11 20 24 -9 53 10
57 36 2 17 8 22 23 19 48 -10 70 -6 70 13 0 18 -23 36 -83 67 -12 7 -23 17
-23 23 -5 46 -18 65 -42 60 -12 -2 -23 -8 -25 -14 -8 -22 -22 3 -22 39 0 30
-6 42 -25 55 -14 9 -28 29 -32 44 -8 32 -28 54 -45 51 -7 -2 -24 1 -38 6 l-25
9 30 6 c37 6 40 34 5 39 -14 1 -27 7 -30 11 -10 17 -57 22 -71 7 -8 -7 -20
-12 -27 -9 -6 2 -12 -3 -12 -11 0 -8 -7 -18 -16 -21 -22 -9 -23 -9 -19 19 1
14 -2 28 -7 31 -12 8 0 24 28 35 21 7 23 12 14 28 -7 13 -7 22 0 26 15 9 32
-5 26 -21 -3 -8 -1 -14 5 -14 6 0 9 -7 5 -15 -4 -10 1 -15 14 -15 13 0 20 7
20 19 0 11 6 21 12 24 10 3 10 9 0 27 -19 31 -1 48 30 28 13 -8 36 -18 51 -22
15 -3 25 -11 22 -16 -3 -5 12 -21 34 -34 51 -32 59 -49 54 -101 -5 -35 -1 -46
21 -68 14 -14 26 -33 26 -40 0 -8 8 -14 17 -13 10 0 18 -4 18 -9 0 -6 10 -24
23 -40 25 -33 25 -29 -3 62 -12 41 -24 65 -37 69 -10 3 -18 10 -18 15 0 6 9 7
20 4 18 -6 20 -2 20 45 0 50 2 54 59 110 33 32 89 74 125 93 l67 35 28 -26
c16 -15 36 -47 44 -72 44 -131 155 -297 279 -415 188 -179 280 -255 309 -255
15 0 29 -7 33 -15 5 -14 -6 -20 -28 -16 -5 1 1 -14 12 -33 35 -59 54 -126 41
-142 -8 -9 -8 -14 -1 -14 18 0 6 -55 -13 -58 -21 -5 -105 18 -105 28 0 12 -94
58 -125 61 -36 3 -85 -19 -85 -38 0 -7 5 -14 10 -14 6 -1 15 -3 20 -4 6 -1 17
-3 25 -4 8 0 15 -5 15 -10 0 -4 -17 -7 -38 -5 -34 3 -40 -1 -57 -29 -11 -18
-20 -35 -20 -39 0 -4 -10 -15 -23 -23 -12 -9 -20 -20 -17 -25 3 -5 -4 -14 -15
-20 -16 -9 -18 -15 -10 -30 8 -16 5 -22 -20 -36 -34 -21 -46 -44 -28 -56 10
-6 9 -11 -4 -19 -10 -5 -18 -18 -18 -27 0 -10 -6 -26 -14 -37 -18 -27 -32 -90
-17 -81 19 12 12 -12 -7 -26 -10 -7 -21 -21 -25 -30 -5 -14 -2 -16 16 -9 39
14 104 23 87 12 -13 -9 -13 -11 2 -11 9 0 20 5 23 10 4 6 10 8 14 6 4 -3 17 3
27 13 11 9 25 16 31 14 7 -3 20 0 29 5 12 7 24 6 36 -2 14 -8 20 -8 27 2 4 8
12 14 17 15 5 1 8 5 7 9 -2 4 4 5 12 2 26 -10 199 85 296 163 117 94 124 97
143 78 8 -8 18 -15 23 -15 4 0 24 -15 44 -33 64 -57 89 -77 98 -77 5 0 14 -7
21 -15 7 -9 19 -14 27 -11 7 3 13 -1 13 -9 0 -8 7 -15 15 -15 13 0 20 -19 16
-44 -1 -5 5 -3 14 4 13 11 14 10 9 -5 -6 -14 -4 -16 6 -10 10 6 12 4 6 -11 -4
-10 -4 -15 0 -11 4 4 16 0 26 -10 16 -14 16 -18 4 -32 -9 -10 -11 -23 -6 -36
5 -11 9 -14 9 -7 1 10 4 10 16 -2 16 -16 20 -31 7 -22 -5 3 -9 -1 -9 -9 0 -10
8 -13 24 -11 12 3 25 1 28 -3 2 -5 -4 -8 -15 -7 -11 0 -18 -3 -17 -9 1 -5 13
-9 26 -8 13 1 21 0 18 -3 -5 -5 -29 -11 -50 -13 -5 -1 -5 -5 -2 -11 3 -5 2
-10 -4 -10 -5 0 -12 6 -14 13 -4 9 -6 9 -6 0 -1 -15 34 -35 44 -25 5 4 5 2 1
-5 -3 -6 -16 -10 -29 -8 -21 4 -21 3 -4 -9 14 -11 15 -15 5 -19 -9 -4 -10 -6
-1 -6 7 -1 10 -9 7 -18 -3 -11 0 -9 8 4 9 15 18 19 27 14 11 -7 11 -9 0 -13
-8 -3 -11 -9 -7 -13 4 -4 14 -3 21 3 11 9 13 7 11 -11 -1 -12 -3 -24 -3 -26
-1 -2 -8 2 -16 9 -15 12 -46 7 -44 -7 4 -21 -2 -33 -13 -27 -7 5 -9 2 -5 -8 5
-13 1 -14 -29 -5 -19 6 -34 14 -34 18 0 4 -14 15 -31 23 -37 18 -69 7 -66 -23
0 -11 4 -18 8 -15 4 2 10 0 14 -6 5 -9 -7 -14 -26 -12 -4 1 -9 -7 -12 -18 -4
-17 -2 -18 16 -8 l22 11 -20 -23 c-19 -23 -19 -23 -1 -16 19 6 19 6 3 -12 -9
-10 -14 -21 -11 -25 11 -11 10 -68 -2 -78 -9 -8 -10 -2 -4 26 5 22 4 37 -3 42
-6 4 -7 1 -2 -7 6 -10 4 -12 -7 -7 -17 6 -19 -8 -4 -31 5 -9 1 -19 -10 -28
-11 -9 -14 -13 -7 -10 6 3 18 3 27 0 12 -5 13 -11 6 -24 -15 -28 -13 -34 18
-52 15 -10 22 -18 15 -18 -6 0 -15 5 -18 10 -3 6 -11 10 -16 10 -6 0 -7 -4 -4
-10 3 -5 1 -10 -5 -10 -6 0 -8 -5 -4 -12 4 -7 3 -8 -5 -4 -6 4 -8 12 -5 18 5
7 2 8 -5 3 -7 -4 -10 -16 -8 -27 5 -16 3 -17 -9 -7 -8 7 -14 8 -13 3 1 -5 0
-12 -1 -16 -1 -5 -3 -12 -4 -18 0 -5 -5 -9 -11 -7 -5 1 -9 5 -8 9 2 4 -4 5
-12 2 -8 -4 -12 -10 -9 -15 3 -6 0 -16 -6 -24 -10 -12 -10 -15 1 -15 9 -1 7
-7 -7 -18 -20 -17 -20 -18 -2 -47 22 -37 23 -44 1 -41 -10 2 -18 8 -18 14 0 6
-6 17 -14 24 -8 7 -12 9 -9 3 10 -17 -11 -57 -24 -49 -10 6 -10 5 -1 -7 10
-13 8 -15 -15 -15 -23 1 -27 -3 -28 -27 -1 -36 -10 -44 -19 -17 -6 18 -9 19
-23 8 -10 -7 -14 -8 -10 -4 4 5 3 15 -3 23 -9 9 -8 13 0 13 6 0 11 -5 11 -10
0 -6 7 -6 19 2 10 6 17 18 14 26 -5 11 -7 11 -14 0 -7 -10 -9 -10 -9 2 0 12
-2 13 -9 1 -7 -11 -9 -11 -14 0 -5 13 -8 3 -11 -41 -1 -10 -10 -14 -26 -12
l-25 2 25 -14 25 -14 -27 1 c-14 1 -26 4 -26 7 1 19 -4 23 -12 10 -8 -12 -10
-11 -10 8 0 12 -4 22 -8 22 -5 0 -8 -18 -8 -39 1 -22 -2 -37 -6 -35 -5 3 -8
19 -8 35 0 44 -29 37 -70 -15 -13 -17 -13 -18 -1 -11 15 9 64 14 56 6 -3 -2 1
-11 8 -20 10 -14 10 -14 -3 -5 -15 11 -46 11 -57 0 -3 -3 4 -9 16 -14 l22 -8
-21 -19 c-12 -11 -25 -20 -29 -20 -3 0 -5 -3 -4 -6 1 -4 -3 -6 -10 -6 -37 1
-46 -4 -40 -20 6 -15 5 -16 -9 -3 -9 8 -12 16 -7 18 18 7 9 18 -14 17 -28 0
-69 -36 -49 -43 17 -5 15 -19 -3 -19 -14 0 -20 16 -16 42 1 6 -4 3 -11 -6 -7
-9 -19 -14 -27 -11 -8 2 -11 0 -8 -5 3 -5 -1 -10 -10 -10 -12 0 -10 5 8 21 13
12 22 20 20 19 -2 -2 -10 2 -18 9 -11 8 -12 7 -7 -6 7 -18 -15 -19 -28 -1 -5
6 -8 5 -8 -3 0 -7 -4 -11 -9 -8 -5 4 -7 -3 -4 -14 3 -11 9 -18 13 -15 5 3 11
1 15 -4 3 -6 18 -10 33 -10 74 -1 81 -3 77 -33 -4 -31 0 -34 19 -16 11 11 11
17 -1 38 -15 25 -15 25 3 5 11 -11 28 -21 39 -23 17 -3 15 1 -10 25 -16 16
-34 27 -39 25 -5 -3 -6 0 -2 7 5 8 17 3 38 -18 17 -17 36 -28 42 -25 6 3 1 -3
-12 -14 -15 -14 -18 -22 -10 -25 9 -4 10 -6 1 -6 -6 -1 -15 4 -18 10 -7 11
-34 -17 -35 -36 0 -5 5 -3 11 5 8 12 10 8 7 -16 -4 -30 -3 -31 26 -27 50 6
116 27 116 35 0 4 3 7 8 7 25 -4 42 2 36 14 -6 9 -5 9 7 0 12 -10 18 -10 29 0
10 10 11 9 5 -3 -7 -13 -6 -13 7 -2 16 13 201 12 214 -1 4 -4 26 -7 49 -7 22
0 46 -5 53 -12 7 -7 12 -9 12 -6 0 4 12 0 27 -7 21 -11 29 -12 35 -2 6 9 8 9
8 -1 0 -8 5 -10 12 -6 8 5 9 1 5 -12 -7 -19 -7 -19 8 0 12 17 17 17 32 5 9 -8
14 -9 11 -4 -4 6 2 11 12 11 14 0 16 -3 8 -13 -8 -11 -7 -12 7 -7 14 6 16 4
10 -6 -5 -9 -4 -11 4 -6 6 4 9 12 6 17 -4 5 -1 9 4 9 11 0 15 -13 12 -36 -1
-6 6 -11 14 -11 11 0 13 6 9 20 -5 17 -4 18 9 6 8 -8 12 -18 9 -23 -3 -5 5 -7
17 -3 17 4 21 2 17 -8 -3 -8 -1 -17 4 -20 16 -10 11 -23 -7 -21 -12 1 -17 -5
-15 -16 2 -12 -2 -16 -13 -12 -8 3 -12 11 -8 17 4 6 0 8 -10 4 -9 -3 -18 -1
-21 6 -3 9 -5 8 -5 -1 -1 -7 -5 -10 -11 -7 -9 5 -14 -7 -12 -26 1 -4 -8 -5
-18 -2 -12 3 -20 14 -20 27 0 18 -2 19 -11 6 -9 -12 -10 -11 -6 7 3 15 1 20
-9 16 -8 -3 -14 -9 -14 -14 0 -5 -10 -9 -22 -9 -21 1 -21 2 -5 11 9 5 17 15
17 20 0 6 -6 7 -13 2 -20 -12 -37 -12 -37 0 0 8 -4 7 -9 -2 -5 -7 -13 -11 -19
-7 -11 7 -10 -19 1 -30 12 -12 8 -26 -5 -17 -19 11 -39 13 -32 2 3 -5 11 -7
17 -3 7 3 4 -1 -6 -9 -15 -12 -16 -19 -8 -36 6 -11 11 -23 11 -28 -1 -4 -8 4
-16 20 -8 15 -12 33 -8 40 4 6 -2 4 -12 -6 -12 -11 -15 -20 -9 -25 6 -4 15
-16 21 -28 10 -18 9 -20 -12 -20 -12 0 -21 3 -18 7 2 4 0 10 -6 14 -6 4 -8 10
-5 15 3 5 1 11 -4 14 -5 3 -7 -10 -5 -30 3 -32 2 -34 -14 -22 -15 12 -16 11
-3 -4 12 -16 33 -18 178 -18 128 0 163 3 157 13 -6 9 -4 9 7 0 7 -7 26 -13 43
-13 28 0 29 0 11 20 -10 11 -13 20 -7 20 7 0 17 -9 24 -20 7 -11 17 -20 22
-20 5 0 2 8 -7 18 -21 23 -21 29 1 35 13 4 11 5 -5 6 -23 1 -28 16 -17 45 3 9
10 13 15 10 5 -3 9 -2 8 3 -1 4 1 16 6 26 4 10 2 23 -5 32 -9 10 -9 15 -1 15
6 0 11 -5 11 -11 0 -5 4 -7 10 -4 6 4 7 -1 3 -12 -5 -14 -3 -16 7 -6 7 6 19 9
26 6 23 -8 16 -20 -11 -20 -33 0 -42 -10 -25 -26 10 -10 11 -9 5 2 -6 11 -3
13 17 8 20 -5 27 -2 35 15 8 19 10 20 16 4 4 -10 3 -15 -3 -11 -6 3 -10 1 -10
-4 0 -9 20 -14 46 -10 8 1 24 -22 24 -33 0 -5 -5 -8 -11 -8 -5 0 -8 4 -5 9 3
5 -1 11 -9 15 -22 8 -18 -11 6 -27 20 -14 23 -46 6 -58 -5 -3 -1 -9 9 -13 10
-4 15 -4 11 0 -4 4 -1 14 6 22 10 13 9 14 -2 7 -9 -5 -12 -4 -7 3 4 6 13 9 22
5 10 -4 12 -9 4 -18 -8 -9 -6 -14 6 -19 8 -3 130 -6 271 -6 208 0 257 3 269
14 9 10 10 17 4 21 -16 10 -1 25 18 18 13 -4 11 0 -5 16 -13 12 -23 27 -24 34
-1 13 -5 31 -14 64 -6 18 -4 21 14 16 13 -3 21 -1 21 6 0 7 -4 10 -9 7 -16
-10 29 95 54 129 14 17 25 36 25 40 0 5 18 32 40 61 22 30 43 68 47 86 3 18
10 38 14 44 5 6 6 14 2 17 -3 4 0 7 8 7 10 1 8 5 -5 15 -11 8 -14 15 -8 15 15
0 11 22 -7 36 -10 8 -11 13 -2 18 7 5 8 13 1 25 -5 10 -6 22 -2 26 4 3 0 5 -8
3 -17 -4 -23 50 -7 70 6 8 6 12 -2 12 -8 0 -10 8 -6 23 4 15 3 18 -3 8 -6 -9
-9 7 -8 49 0 34 -2 64 -7 67 -4 2 -5 8 -2 12 2 5 -4 16 -15 26 -14 13 -17 22
-10 35 6 11 5 23 -4 36 -14 21 -14 33 -3 52 7 11 -3 16 -25 13 -11 -1 -2 30
11 39 9 5 10 10 3 14 -6 3 -18 -4 -26 -16 -13 -18 -16 -19 -16 -5 0 9 -7 17
-16 17 -8 0 -12 -4 -9 -10 3 -5 1 -10 -5 -10 -8 0 -10 9 -6 25 5 21 2 27 -21
37 -16 7 -34 20 -41 28 -8 8 -11 9 -7 3 10 -20 -29 -15 -41 5 -18 28 8 46 30
21 9 -11 22 -17 28 -13 6 4 8 3 5 -2 -3 -6 4 -16 15 -23 18 -11 20 -11 14 4
-5 15 -4 16 9 5 8 -7 15 -9 15 -4 0 5 4 3 8 -3 7 -10 12 -10 27 1 16 12 17 16
6 29 -7 9 -10 21 -7 26 4 5 -2 15 -11 21 -17 11 -17 11 0 6 18 -6 24 9 7 19
-6 4 -7 12 -3 18 4 7 0 6 -10 -2 -9 -7 -17 -12 -18 -10 -5 25 -8 37 -15 53 -5
14 -4 17 6 11 8 -5 11 -3 9 4 -3 7 -8 12 -13 11 -11 -2 -26 20 -26 38 0 8 5
10 13 6 6 -4 5 1 -4 12 -8 10 -15 31 -14 46 0 15 -2 25 -5 24 -3 -2 -14 6 -25
17 -11 11 -14 16 -6 12 10 -5 12 -4 7 4 -4 6 -11 9 -16 6 -5 -3 -20 0 -35 7
-18 8 -22 14 -13 19 10 7 10 11 -1 21 -11 11 -13 11 -6 -1 5 -8 4 -12 -2 -8
-5 3 -9 22 -8 41 1 20 -2 36 -8 36 -5 0 -4 6 3 14 6 8 19 12 27 9 11 -5 14 -3
8 6 -6 10 -3 11 13 2 17 -9 19 -8 15 9 -3 11 -10 17 -16 13 -7 -4 -8 0 -4 11
5 13 3 17 -7 13 -10 -4 -12 0 -9 14 4 13 1 19 -8 17 -8 -2 -13 3 -11 12 2 8 0
12 -4 8 -4 -4 -28 8 -55 26 -26 19 -50 32 -54 28 -9 -10 -55 -10 -49 0 3 5
-12 8 -33 7 -21 -1 -53 -2 -71 -1 -30 2 -33 4 -26 25 3 12 19 40 35 61 16 21
26 44 22 49 -3 6 -2 7 3 4 6 -3 16 -2 24 4 10 6 11 9 3 9 -7 0 -12 3 -12 8 3
19 -2 25 -11 12 -6 -10 -10 -11 -10 -2 0 6 -7 12 -15 12 -8 0 -15 -8 -15 -17
0 -14 -3 -13 -16 5 -8 12 -19 20 -24 17 -5 -3 -11 -1 -14 4 -4 5 2 8 11 6 26
-4 48 16 31 26 -9 6 -3 9 15 9 16 0 26 4 22 10 -3 6 -2 10 3 10 5 0 14 12 20
26 7 14 17 22 22 19 6 -3 7 1 4 9 -4 10 -1 16 7 16 11 0 11 3 -1 10 -8 5 -11
10 -7 10 4 0 2 6 -5 14 -7 8 -17 12 -22 9 -4 -3 0 6 9 21 15 22 15 26 2 26
-14 0 -18 23 -5 35 3 3 2 22 -2 41 -6 26 -4 36 7 43 14 7 14 12 -3 39 -14 24
-23 30 -40 26 -12 -3 -25 -1 -28 5 -4 6 0 11 8 11 9 0 16 5 16 11 0 5 -4 7
-10 4 -12 -8 -12 33 0 95 5 30 5 47 -3 52 -12 7 -48 5 -64 -5 -7 -4 -13 0 -16
10 -4 16 -5 16 -6 -1 -1 -16 -3 -17 -18 -5 -9 8 -14 9 -10 3 8 -13 -36 -29
-67 -25 -13 2 -16 -1 -10 -11 6 -11 5 -11 -9 0 -18 15 -41 7 -31 -10 4 -7 2
-8 -5 -4 -6 4 -9 12 -5 17 4 7 -10 8 -40 4 -32 -5 -46 -4 -46 4 0 7 -5 9 -10
6 -6 -4 -8 -10 -5 -14 2 -5 -5 -8 -18 -7 -14 1 -21 -4 -19 -13 2 -11 -3 -10
-24 4 -14 9 -23 12 -19 5 5 -9 1 -10 -14 -5 -21 6 -30 -8 -11 -20 17 -10 11
-25 -17 -43 -16 -9 -30 -26 -31 -36 -3 -16 -1 -18 11 -8 11 10 17 9 28 -5 13
-16 12 -17 -3 -4 -18 13 -19 12 -22 -11 0 -6 -8 -13 -16 -15 -13 -4 -13 -3 0
6 12 8 11 10 -7 8 -20 -1 -21 -3 -7 -18 13 -15 13 -17 -1 -23 -9 -3 -13 -2
-10 4 3 6 -1 7 -9 4 -9 -3 -13 -11 -9 -18 4 -6 -6 -2 -22 8 -18 11 -25 13 -18
5 9 -12 6 -18 -18 -31 -16 -9 -29 -13 -29 -9 0 11 -27 22 -64 27 -16 2 -35 9
-41 14 -9 8 -15 7 -18 -2 -4 -9 -8 -10 -14 -3 -11 15 -63 47 -63 40 0 -4 -12
2 -27 13 -16 11 -38 23 -50 26 -13 4 -23 12 -23 17 0 5 -5 9 -10 9 -30 0 -250
193 -250 219 0 5 -5 11 -12 13 -6 2 -13 22 -15 45 -2 34 0 42 17 46 16 4 19
11 14 36 -6 26 -4 31 14 31 27 0 38 -31 16 -47 -16 -11 -13 -13 18 -13 20 0
98 9 174 21 129 19 145 24 253 78 64 31 139 63 166 70 74 19 93 27 177 83 62
40 78 56 78 75 0 30 -24 40 -45 19 -9 -9 -24 -16 -33 -16 -13 1 -9 8 14 28 56
48 69 104 39 162 -17 33 -65 43 -65 15 0 -8 -12 -18 -28 -21 -15 -4 -32 -11
-39 -16 -7 -6 -17 -8 -22 -6 -6 1 12 21 39 43 61 50 66 61 33 82 -24 16 -26
16 -39 -3 -7 -10 -17 -24 -22 -30 -5 -6 -12 -20 -16 -31 -6 -20 -36 -28 -36
-9 0 5 -7 1 -15 -10 -8 -10 -15 -15 -15 -11 0 4 -9 3 -21 -3 -11 -7 -18 -17
-16 -24 4 -9 -2 -13 -16 -12 -12 1 -29 -2 -37 -7 -8 -5 -3 1 11 15 14 13 23
30 21 37 -3 8 0 11 7 7 7 -5 11 1 11 16 0 18 2 20 9 8 6 -8 7 -18 4 -24 -3 -5
-1 -6 4 -3 6 4 8 19 5 33 -3 19 -1 25 7 20 6 -4 9 -11 7 -15 -3 -4 1 -8 7 -8
7 0 14 10 15 21 1 17 -1 18 -8 6 -7 -10 -10 -11 -10 -2 0 20 4 27 15 24 5 -2
7 -1 3 3 -4 4 -3 17 2 30 5 13 6 26 2 30 -4 4 -7 12 -7 18 0 7 -4 13 -10 13
-32 4 -73 31 -84 56 -7 15 -19 28 -27 28 -9 0 -13 4 -9 9 3 5 1 12 -5 16 -5 3
-10 13 -10 21 0 8 4 13 9 10 5 -4 12 0 14 6 4 9 8 10 14 2 4 -6 21 -13 36 -16
21 -4 30 0 39 16 6 11 12 21 12 22 1 0 -5 9 -13 18 -13 15 -13 19 0 27 12 7
11 9 -2 9 -9 0 -23 8 -30 17 -12 14 -12 16 1 9 8 -4 4 2 -10 13 -14 11 -21 21
-16 21 15 0 -36 40 -52 40 -12 0 -12 3 -2 15 8 9 8 15 2 15 -6 0 -14 9 -17 20
-3 11 -13 20 -21 20 -8 0 -12 5 -9 10 4 6 3 10 -2 9 -21 -4 -44 2 -39 10 3 5
0 11 -8 14 -20 8 -13 47 30 167 20 58 38 106 39 107 1 2 21 -5 44 -14 42 -16
44 -16 60 3 9 12 31 27 49 34 18 7 31 15 28 17 -2 3 14 21 36 41 23 20 65 60
95 88 61 59 68 51 18 -25 -19 -29 -35 -54 -35 -57 0 -2 -12 -23 -27 -46 -40
-62 -79 -102 -95 -96 -9 4 -14 -5 -15 -28 -1 -25 5 -39 25 -56 33 -29 82 -93
82 -108 0 -6 5 -8 11 -4 8 4 9 -1 5 -17 -6 -22 -6 -23 7 -6 8 9 18 17 22 17 4
0 3 -6 -2 -12 -6 -7 -13 -25 -15 -41 -5 -24 -3 -27 15 -21 12 4 27 13 35 20 7
8 20 14 27 14 8 0 12 8 11 18 -2 9 -1 25 3 34 5 15 8 14 31 -4 16 -14 21 -22
13 -25 -20 -7 -163 -125 -163 -135 0 -4 20 -7 44 -6 31 1 43 5 39 14 -2 6 0
14 5 18 5 3 8 -4 7 -16 -1 -11 -9 -24 -18 -30 -14 -7 -15 -13 -7 -29 6 -11 9
-30 6 -42 -3 -12 -3 -16 0 -9 3 6 10 10 15 6 5 -3 8 0 7 8 -2 7 3 12 11 10 11
-2 12 0 3 10 -12 15 -11 43 3 55 4 4 5 3 2 -3 -3 -6 0 -22 8 -37 8 -15 12 -27
9 -27 -3 0 0 -10 7 -21 6 -12 14 -18 18 -13 3 5 15 16 26 24 12 9 16 9 9 1 -9
-10 -8 -17 5 -30 13 -13 38 -16 129 -16 97 0 115 -3 123 -18 6 -9 19 -21 29
-27 16 -8 18 -8 14 5 -4 8 -1 15 5 15 6 0 10 -3 10 -7 -1 -5 -1 -15 0 -23 1
-13 2 -13 12 0 9 13 10 13 6 0 -2 -8 -11 -14 -21 -12 -10 2 -16 -4 -16 -15 0
-11 3 -14 8 -7 4 6 15 10 24 8 11 -1 29 14 48 42 16 25 30 48 30 53 0 4 7 16
15 27 13 17 14 15 14 -31 -1 -27 -3 -42 -6 -32 -4 14 -10 9 -28 -25 -15 -27
-29 -42 -39 -40 -9 2 -16 -2 -16 -8 0 -6 -5 -8 -11 -4 -7 4 -3 -6 8 -22 11
-16 32 -48 48 -71 33 -50 112 -120 175 -154 25 -13 47 -27 50 -30 3 -4 41 -5
85 -3 98 4 105 5 99 16 -3 5 -10 6 -15 3 -19 -12 -8 17 16 41 25 25 25 25 3
19 -21 -5 -21 -5 -4 6 15 9 16 13 5 20 -20 14 18 41 45 33 21 -6 21 -6 1 9
-19 16 -19 16 5 10 24 -5 24 -5 6 9 -16 12 -16 16 -5 23 8 5 11 5 7 0 -4 -4 0
-13 8 -20 14 -10 14 -15 5 -34 -11 -21 -11 -22 7 -12 22 12 62 67 41 57 -8 -4
-5 -1 5 6 34 23 57 48 51 57 -2 5 2 11 9 14 8 3 17 1 20 -6 2 -7 5 -4 5 6 1
10 9 17 21 17 12 0 20 7 20 18 0 14 2 15 10 2 8 -12 10 -11 10 7 0 12 9 27 21
33 11 7 19 14 16 16 -3 3 6 17 19 31 13 14 24 32 24 39 0 8 4 14 10 14 13 0 9
93 -5 102 -6 5 -6 11 3 20 20 20 14 38 -15 39 -16 0 -23 3 -17 5 6 3 9 17 7
32 -3 23 -2 24 6 7 5 -11 10 -15 10 -10 1 6 6 3 11 -5 7 -11 10 -12 10 -2 0
10 4 10 16 -2 17 -18 49 -22 39 -6 -4 6 -10 8 -15 5 -5 -3 -11 -1 -14 4 -4 5
2 8 11 6 10 -1 27 2 38 8 18 9 19 9 6 -6 -12 -15 -11 -17 10 -19 28 -1 87 0
112 4 10 1 15 8 12 16 -2 7 0 10 5 7 6 -3 10 -15 10 -25 0 -12 6 -17 18 -16 9
2 21 -2 25 -8 6 -8 10 -7 14 2 2 6 9 9 15 6 5 -3 16 2 24 12 14 18 15 18 10
-1 -9 -35 25 -56 63 -39 9 4 25 9 36 11 16 2 17 1 5 -6 -8 -5 -18 -7 -24 -4
-5 3 -6 1 -3 -4 4 -6 18 -8 32 -5 19 3 24 9 20 20 -5 13 -3 13 13 -1 10 -9 23
-17 29 -17 6 0 22 -9 36 -20 17 -14 27 -16 29 -8 3 7 27 13 57 14 31 1 48 -2
40 -7 -7 -4 -18 -5 -24 -2 -5 3 -5 0 2 -7 6 -7 19 -10 27 -7 18 7 21 33 6 42
-5 3 -10 10 -10 16 0 5 9 4 19 -3 11 -7 19 -14 18 -17 -2 -7 8 -11 24 -11 5 0
8 4 5 8 -6 10 30 9 40 0 5 -6 11 -29 13 -53 1 -5 5 -4 10 4 5 7 8 21 6 30 -2
18 12 31 35 30 11 0 11 -2 -2 -7 -16 -7 -16 -8 3 -20 16 -10 19 -10 13 -1 -5
9 -2 10 12 5 15 -6 17 -5 7 5 -16 16 -17 33 -1 23 7 -5 9 -2 5 9 -4 11 -2 14
8 10 8 -3 12 -9 9 -14 -11 -18 8 -9 25 12 l17 21 1 -21 c1 -11 -2 -23 -8 -26
-5 -4 -9 -12 -9 -18 0 -7 5 -4 11 6 6 9 15 14 21 11 7 -5 8 -2 3 6 -6 10 -4
12 8 7 9 -3 18 -1 21 6 3 8 5 8 5 -2 1 -10 4 -11 15 -2 10 8 16 9 21 1 6 -10
5 -11 -17 -14 -6 0 -13 -7 -16 -14 -2 -7 2 -11 9 -10 17 4 47 31 42 40 -1 3 8
1 21 -5 16 -8 21 -14 13 -19 -9 -6 -9 -8 0 -8 6 0 15 5 18 10 5 8 12 7 23 -2
13 -11 14 -11 7 2 -7 13 -6 13 7 2 12 -9 18 -10 23 -2 4 6 14 10 23 9 22 -3
85 11 79 18 -5 5 7 22 56 76 15 18 28 38 28 47 1 8 3 27 5 43 1 15 -1 27 -7
27 -21 0 -6 20 42 56 34 27 49 44 46 56 -3 10 1 22 9 29 8 6 14 24 14 39 0 15
7 40 15 56 8 16 12 38 9 51 -4 16 2 32 20 54 14 17 26 37 26 44 0 8 8 19 18
24 21 11 42 -3 43 -28 0 -9 13 -26 30 -39 l29 -24 0 252 c0 195 -3 251 -12
249 -31 -4 -48 2 -48 16 0 18 1 18 34 5 l26 -9 0 1249 0 1250 -233 0 c-194 0
-236 -3 -255 -16 -12 -8 -22 -21 -22 -27 0 -7 4 -6 10 3 8 13 10 12 10 -4 0
-14 -5 -17 -25 -12 -27 7 -65 -11 -65 -31 0 -7 -4 -13 -10 -13 -5 0 -10 -8
-10 -18 0 -37 -51 -59 -64 -27 -3 9 0 15 9 15 7 0 16 4 19 9 3 5 -5 8 -18 7
-13 0 -22 -4 -20 -7 3 -6 -27 -18 -56 -23 -3 -1 -18 -6 -35 -13 -16 -6 -38
-14 -48 -17 -14 -5 -15 -9 -5 -25 9 -15 8 -22 -4 -35 -14 -14 -17 -13 -32 3
-9 10 -13 21 -9 24 4 4 -10 6 -30 5 -23 -2 -36 -7 -33 -15 3 -6 -2 -14 -11
-17 -9 -4 -13 -9 -10 -13 4 -3 -2 -13 -12 -23 -14 -11 -17 -21 -10 -31 7 -12
9 -11 9 3 0 9 4 20 10 23 5 3 7 0 4 -8 -3 -8 0 -18 5 -22 6 -3 9 -11 6 -16 -4
-5 3 -9 14 -9 12 0 22 -4 22 -10 2 -11 5 -25 9 -37 1 -5 2 -11 1 -15 0 -4 6
-5 14 -1 9 3 23 -4 34 -16 10 -11 24 -21 31 -21 7 0 10 -3 7 -7 -4 -3 19 -15
51 -25 31 -10 67 -24 79 -30 12 -6 29 -8 38 -4 9 3 13 2 10 -4 -3 -6 1 -10 9
-10 8 0 18 -10 21 -21 6 -17 9 -19 16 -8 6 10 9 8 9 -8 0 -13 5 -23 10 -23 18
0 11 -28 -8 -34 -17 -6 -28 -36 -13 -34 22 2 19 -6 -14 -37 -21 -19 -42 -32
-47 -29 -4 3 -8 -2 -8 -11 0 -9 -4 -13 -10 -10 -5 3 -10 2 -10 -3 0 -16 -45
-60 -65 -64 -11 -2 -21 -9 -21 -16 -1 -6 -2 -17 -3 -24 0 -6 -4 -9 -7 -5 -4 3
-23 -2 -44 -13 -21 -11 -40 -17 -42 -14 -3 2 -11 -2 -18 -11 -7 -8 -18 -15
-26 -15 -7 0 -19 -8 -26 -18 -7 -9 -26 -26 -42 -36 -20 -12 -25 -21 -16 -26 6
-4 11 -10 11 -14 -4 -25 1 -46 9 -46 6 0 20 -9 32 -20 19 -17 19 -20 5 -26
-10 -3 -17 -11 -17 -18 0 -23 -64 -66 -98 -66 -10 0 -38 -13 -60 -30 -23 -16
-46 -30 -52 -30 -5 0 -10 -5 -10 -11 0 -5 -4 -8 -9 -4 -6 3 -13 -1 -18 -9 -4
-8 -24 -16 -43 -19 -20 -2 -50 -12 -68 -21 -18 -9 -32 -14 -32 -11 0 3 -9 1
-19 -5 -13 -6 -22 -7 -26 0 -3 5 -11 7 -18 4 -8 -3 -56 -6 -108 -8 -52 -2 -96
-5 -99 -6 -3 -1 -9 -1 -15 0 -5 1 -71 3 -145 4 -74 1 -141 6 -149 10 -7 5 -43
10 -80 12 -118 6 -155 12 -196 29 -22 10 -47 18 -55 17 -23 0 -80 17 -125 38
-59 29 -121 47 -205 60 -41 7 -78 18 -82 24 -6 8 -8 8 -8 -1 0 -6 -9 -9 -20
-6 -11 3 -20 8 -20 12 0 4 -6 16 -14 27 -12 16 -12 11 0 -36 8 -32 23 -62 36
-71 21 -16 33 -59 16 -59 -4 0 -8 -17 -9 -37 0 -31 -2 -34 -10 -18 -7 15 -8
11 -6 -20 2 -35 -1 -40 -21 -43 -12 -2 -23 1 -23 7 -2 16 -4 23 -13 49 -6 17
-12 21 -28 16 -18 -5 -20 -3 -13 12 4 11 8 28 9 39 1 12 8 19 16 17 8 -2 12 0
8 4 -4 4 -2 14 5 22 10 13 9 14 -10 4 -30 -17 -41 -15 -17 3 15 11 16 17 6 23
-7 5 -10 15 -7 23 4 10 -4 20 -20 29 l-26 14 23 12 c17 9 23 22 25 60 6 74 6
74 16 74 6 0 6 5 1 13 -5 7 -2 5 7 -5 14 -14 19 -15 34 -4 10 7 16 20 12 28
-8 22 16 52 68 88 35 24 45 27 45 15 0 -9 -4 -14 -8 -11 -5 3 -23 -8 -41 -24
-18 -17 -36 -30 -41 -30 -4 0 -11 -7 -14 -16 -5 -14 -4 -15 9 -4 24 20 32 -16
9 -42 -19 -21 -19 -21 4 -7 12 8 22 17 22 22 0 4 6 2 14 -5 10 -9 11 -19 4
-33 -9 -19 -9 -19 6 -1 11 14 13 24 5 38 -16 30 -3 33 16 4 16 -24 35 -27 35
-5 0 6 -4 8 -9 5 -18 -11 2 35 20 48 10 7 22 27 25 45 4 17 11 34 15 37 5 3 9
13 9 22 0 10 15 26 33 37 40 23 91 65 80 65 -4 0 -2 4 5 8 8 6 3 15 -20 32
-17 13 -37 23 -43 23 -6 0 9 21 34 47 25 26 47 46 49 45 1 -1 -2 -14 -8 -29
-6 -18 -6 -25 0 -21 6 3 10 13 10 21 0 8 5 14 11 14 5 0 7 5 3 12 -5 8 -3 8 7
2 23 -14 58 -12 52 4 -4 9 -9 10 -16 3 -6 -6 -16 -11 -21 -11 -6 0 -4 5 4 10
12 8 13 12 2 19 -19 11 1 19 49 17 24 -1 35 3 32 11 -2 6 4 10 14 10 10 -1 17
4 15 11 -1 8 2 11 8 7 6 -4 18 1 25 11 11 15 14 16 15 4 1 -12 3 -12 14 2 7
10 16 15 19 11 4 -3 7 -1 7 6 0 7 4 10 9 7 5 -4 11 -1 13 6 4 11 25 18 65 20
13 0 21 4 18 8 -7 11 48 -1 64 -14 11 -8 15 -8 18 2 3 6 8 10 13 7 4 -3 6 5 3
17 -3 17 -2 19 5 10 5 -8 12 -13 16 -13 20 3 26 0 20 -11 -4 -7 -3 -8 4 -4 6
4 8 14 5 23 -4 11 -3 14 5 9 7 -4 12 -2 12 6 0 10 3 9 9 -2 6 -8 7 -19 3 -25
-3 -5 9 3 27 18 31 26 34 27 47 10 9 -11 13 -13 12 -4 -4 18 42 22 49 4 4 -10
9 -11 19 -2 11 9 14 9 14 0 0 -7 4 -10 9 -6 5 3 12 1 16 -5 4 -6 11 -8 16 -5
5 4 9 1 9 -6 0 -6 8 -9 20 -6 11 3 23 1 26 -4 3 -5 12 -2 21 6 21 22 34 15 49
-26 7 -19 13 -30 13 -24 1 5 8 -1 17 -13 8 -12 20 -20 25 -17 5 4 9 1 9 -5 0
-6 4 -9 9 -6 5 4 12 0 14 -6 3 -8 6 -6 6 5 1 9 -5 17 -13 17 -8 0 -17 6 -19
13 -4 9 -6 9 -6 -1 -1 -14 -21 -7 -21 8 0 13 21 7 67 -20 30 -18 43 -32 43
-47 0 -18 6 -23 24 -23 28 0 40 -22 23 -40 -9 -10 -9 -11 1 -6 6 4 12 2 12 -3
0 -6 7 -11 15 -11 8 0 15 -7 15 -16 0 -8 4 -12 10 -9 6 3 10 -1 10 -10 0 -9 5
-13 10 -10 6 4 9 3 8 -2 -5 -19 26 -50 46 -46 13 2 10 -2 -9 -11 -28 -13 -21
-21 14 -17 7 2 10 -2 6 -8 -3 -6 -1 -11 5 -11 6 0 8 -5 4 -12 -5 -8 -2 -9 9
-5 10 3 17 2 17 -2 0 -5 -6 -12 -12 -14 -7 -3 -3 -6 10 -6 12 -1 22 -7 22 -13
0 -9 3 -10 8 -2 9 14 42 14 42 0 0 -6 6 -4 13 5 7 9 24 19 38 22 33 8 79 44
79 62 0 7 -16 20 -36 30 -21 10 -46 35 -64 63 -27 44 -84 90 -104 84 -8 -3
-62 35 -99 69 -24 22 -30 74 -10 91 9 7 18 12 20 10 2 -1 15 5 29 14 18 12 22
20 14 28 -8 8 -13 7 -20 -4 -8 -13 -10 -12 -10 3 0 9 -7 17 -16 17 -14 0 -14
2 1 16 13 13 22 15 48 6 18 -5 24 -10 15 -11 -10 -1 -18 -6 -18 -12 0 -13 31
-4 92 27 26 13 56 25 66 27 9 1 28 10 42 20 13 9 30 17 37 17 7 0 13 4 13 9 0
5 10 13 22 17 13 3 30 13 39 21 12 10 29 12 57 8 31 -4 41 -2 46 10 3 9 11 13
16 10 6 -4 7 -12 3 -19 -4 -7 -1 -5 7 4 9 9 22 14 29 12 8 -3 11 0 7 6 -3 5 1
12 9 16 19 7 19 45 0 52 -20 8 -19 21 3 27 9 3 -952 5 -2135 6 l-2153 1 0
-1568z m1480 1339 c0 -3 17 -6 38 -5 20 1 43 -3 50 -9 20 -16 106 -45 158 -53
37 -5 44 -4 44 10 0 9 -4 16 -10 16 -5 0 -7 7 -4 15 6 15 35 20 47 9 3 -4 -3
-18 -13 -32 -24 -29 -25 -42 -5 -42 8 0 37 -13 65 -30 27 -16 50 -27 50 -24 0
7 27 -16 53 -45 12 -14 30 -33 40 -43 9 -10 14 -18 10 -18 -4 0 3 -9 15 -21
12 -11 20 -25 16 -30 -3 -6 3 -13 14 -16 17 -4 19 -9 11 -35 -10 -38 -8 -36
-48 -43 -33 -6 -70 -38 -71 -62 0 -7 -4 -13 -9 -13 -5 0 -13 -10 -17 -22 -11
-31 -14 -51 -7 -44 3 3 14 1 25 -5 18 -10 18 -12 4 -33 -11 -17 -12 -26 -3
-35 8 -8 5 -16 -11 -31 -12 -12 -22 -16 -22 -11 0 5 -8 11 -17 13 -15 3 -14 6
7 26 l25 24 -40 -8 c-22 -4 -49 -8 -60 -8 -11 -1 -23 -5 -27 -11 -4 -5 -8 1
-8 15 -1 22 -2 23 -13 9 -9 -12 -26 -16 -63 -14 -48 2 -51 1 -47 -19 4 -19 2
-18 -21 7 -14 15 -31 27 -38 27 -7 0 -25 7 -41 14 -15 8 -36 13 -47 11 -11 -2
-20 2 -20 8 0 8 -2 9 -8 1 -12 -19 -50 -35 -57 -24 -3 6 4 10 17 11 13 0 17 3
11 6 -10 3 -10 10 -2 26 9 20 9 20 -4 5 -8 -10 -18 -18 -22 -18 -4 0 -14 -8
-21 -17 -9 -11 -17 -14 -21 -8 -13 16 -33 16 -33 0 0 -8 5 -15 10 -15 6 0 10
-7 10 -15 0 -8 5 -15 10 -15 6 0 10 -8 8 -17 -2 -10 2 -18 7 -19 6 0 27 -8 47
-17 21 -10 53 -17 72 -17 20 0 61 -13 93 -29 46 -22 70 -28 113 -26 30 1 71
-3 92 -11 20 -7 39 -10 42 -7 3 4 6 2 6 -4 0 -6 -7 -16 -15 -23 -8 -7 -15 -20
-15 -30 0 -10 -7 -20 -15 -24 -18 -6 -45 2 -45 15 0 12 -76 32 -130 35 -25 1
-59 7 -77 12 -17 6 -34 8 -37 4 -3 -3 -6 -1 -6 5 0 5 -25 10 -57 9 -32 0 -74
3 -93 8 -19 4 -45 7 -57 7 -13 0 -28 8 -35 18 -6 11 -18 17 -26 13 -11 -4 -13
-1 -8 9 5 9 3 9 -6 -2 -14 -16 -90 -15 -96 1 -2 5 -10 6 -18 3 -8 -3 -14 0
-14 6 0 5 -18 15 -39 21 -21 5 -42 17 -45 26 -3 8 -10 12 -16 9 -5 -3 -10 -1
-10 4 0 6 -7 11 -15 11 -9 0 -12 6 -9 15 4 9 0 15 -10 15 -9 0 -16 5 -16 11 0
5 5 7 10 4 6 -3 10 -1 10 4 0 6 -6 11 -12 12 -7 1 -26 2 -42 4 -16 1 -38 12
-48 25 -10 12 -18 17 -18 11 0 -15 -30 -14 -31 2 0 9 -2 9 -6 -1 -2 -6 -9 -10
-13 -7 -5 3 -11 1 -15 -4 -3 -6 4 -8 16 -6 17 4 20 2 11 -7 -16 -16 -42 -19
-39 -5 1 7 -3 11 -10 10 -13 -3 -12 22 2 34 4 4 5 3 1 -4 -3 -6 -2 -14 4 -18
5 -3 10 1 10 10 0 9 5 13 10 10 6 -3 10 -2 10 3 0 6 22 9 50 8 36 -1 54 -7 65
-21 12 -16 14 -17 9 -2 -4 11 -1 17 10 17 9 0 16 -5 16 -11 0 -5 4 -7 10 -4 5
3 20 8 32 10 12 3 25 10 28 16 4 6 9 10 11 9 2 -1 12 2 21 5 12 5 16 15 13 35
-2 20 1 27 11 26 21 -3 30 -16 11 -16 -19 0 -20 -2 -11 -24 5 -14 9 -14 22 -4
13 11 15 10 10 -2 -4 -11 1 -16 16 -18 16 -1 22 5 23 20 1 13 -3 26 -10 30 -9
6 -9 8 1 8 7 0 11 4 8 8 -3 5 1 9 9 9 10 0 12 -4 5 -12 -7 -8 -4 -17 9 -29 13
-11 21 -14 26 -7 3 6 -1 14 -10 17 -15 6 -13 10 8 30 20 19 24 30 20 56 -3 18
-6 52 -7 75 -1 40 -3 43 -31 44 -17 1 -22 3 -12 6 9 2 17 9 17 14 0 6 -4 8 -9
4 -5 -3 -12 -1 -16 5 -4 6 -11 8 -16 4 -5 -3 -8 0 -7 8 2 7 -7 14 -19 16 -13
2 -23 8 -23 13 0 5 -8 9 -18 9 -9 0 -22 10 -27 23 -6 12 -21 24 -34 25 -19 3
-21 6 -10 13 11 7 8 9 -9 9 -13 0 -31 7 -40 16 -14 15 -14 18 9 34 29 23 147
35 204 22 22 -5 49 -8 60 -6 10 2 25 -5 33 -14 13 -16 13 -16 8 0 -3 12 -1 15
9 11 8 -3 12 -9 9 -14 -3 -5 4 -5 18 0 13 5 28 9 33 10 59 5 95 15 95 26 0 7
6 15 13 18 14 5 37 -2 37 -12z m908 -1233 c7 -7 12 -36 12 -66 0 -46 4 -58 29
-83 16 -16 40 -29 52 -29 12 0 36 -11 53 -24 21 -16 37 -21 51 -16 11 4 28 3
39 -2 13 -7 16 -7 12 1 -4 6 -1 11 6 12 79 6 163 21 198 36 22 9 81 16 163 19
71 2 133 6 138 9 5 4 9 0 9 -7 0 -10 2 -10 8 -1 5 7 13 9 22 3 7 -5 33 -6 56
-3 25 3 44 0 49 -6 3 -6 11 -9 16 -5 5 3 16 0 24 -6 8 -7 15 -9 15 -4 0 4 7
-1 15 -12 8 -10 15 -15 15 -10 0 5 10 1 22 -10 12 -10 18 -13 14 -6 -6 10 0 9
23 -2 17 -9 34 -16 38 -16 5 0 23 -5 40 -11 18 -6 37 -8 43 -4 6 3 13 -1 16
-9 3 -9 10 -14 14 -11 5 3 16 -2 24 -11 12 -11 16 -12 16 -2 1 7 8 2 16 -12
11 -18 14 -20 10 -5 -6 20 -6 20 9 1 8 -11 15 -16 15 -12 0 5 7 3 15 -4 13
-11 14 -10 8 6 -6 17 -5 17 10 6 9 -8 21 -11 26 -8 5 4 13 2 16 -4 4 -6 15 -8
26 -5 22 7 23 2 8 -27 -9 -16 -8 -19 3 -16 7 3 13 10 13 15 0 6 4 15 8 20 5 4
8 4 7 -2 -9 -42 4 -40 19 4 10 29 25 57 32 62 48 30 126 -21 139 -90 7 -39 6
-42 -11 -38 -11 3 -19 1 -19 -4 0 -5 -4 -9 -9 -9 -5 0 -8 8 -6 18 2 9 4 21 4
26 1 4 8 6 16 2 23 -8 18 1 -12 22 -36 25 -93 38 -93 22 0 -7 7 -10 15 -6 15
5 16 3 19 -46 2 -33 -11 -38 -16 -5 l-3 22 -13 -22 c-11 -20 -9 -24 19 -39 17
-9 42 -14 54 -11 15 2 22 0 19 -7 -3 -7 -17 -12 -32 -11 -18 0 -26 -5 -24 -14
9 -44 -21 -66 -115 -81 -50 -8 -102 -43 -95 -64 2 -5 -3 -4 -11 3 -12 9 -16 8
-21 -4 -7 -18 -32 -20 -39 -2 -3 6 -6 2 -6 -10 -1 -23 -10 -27 -56 -24 l-20 1
20 -9 c19 -9 20 -10 0 -10 -13 -1 -16 -4 -9 -11 11 -11 47 -3 39 9 -2 4 1 8 8
8 7 0 12 -12 11 -26 -1 -14 -5 -26 -10 -25 -5 1 -16 -7 -26 -17 -14 -15 -15
-19 -1 -38 8 -12 49 -38 91 -59 42 -20 78 -43 79 -49 2 -7 -1 -13 -6 -13 -5 0
-17 -7 -25 -16 -30 -29 -170 35 -214 98 -12 16 -11 23 2 42 14 23 14 24 -9 29
-14 2 -43 4 -64 3 -27 -1 -37 2 -30 9 6 6 41 10 79 10 76 0 90 6 66 30 -9 9
-16 25 -16 35 0 27 -20 36 -27 12 -6 -23 -36 -39 -41 -23 -2 6 -8 8 -14 5 -14
-9 -48 31 -38 46 6 10 9 9 11 -3 3 -12 8 -14 19 -7 13 9 13 11 0 20 -12 8 -11
10 7 10 12 0 32 -4 45 -8 13 -4 48 -3 78 3 l55 11 -48 35 c-39 27 -59 34 -100
35 -30 1 -53 6 -55 13 -3 8 -8 9 -15 2 -7 -5 -23 -11 -37 -13 -16 -2 -32 -16
-47 -43 -23 -41 -50 -54 -45 -23 2 12 -2 16 -13 12 -8 -3 -15 -10 -15 -15 0
-14 -26 -10 -40 6 -7 9 -10 19 -6 22 4 4 11 2 15 -5 5 -9 15 -10 32 -4 13 5
27 9 31 8 14 -2 49 35 45 47 -2 7 -20 13 -40 15 -28 2 -42 -3 -62 -22 -14 -14
-25 -24 -26 -23 -1 1 -2 16 -4 32 -1 17 -8 56 -15 88 l-12 59 -51 -3 c-29 -1
-65 1 -80 6 -18 4 -33 3 -39 -3 -8 -8 -5 -9 11 -5 11 3 21 1 21 -4 0 -14 -65
-31 -107 -28 -21 1 -30 1 -20 -2 9 -2 17 -8 17 -13 0 -10 -31 -18 -48 -13 -6
3 -10 8 -8 12 3 4 -9 5 -27 3 -18 -3 -35 -10 -39 -16 -5 -7 -12 -5 -21 8 -8
11 -19 16 -26 12 -14 -9 -43 12 -35 25 3 5 0 9 -5 9 -22 0 -26 2 -43 17 -15
13 -72 32 -105 35 -8 1 -10 10 -6 26 5 21 3 24 -11 19 -9 -4 -16 -1 -16 6 -1
7 -7 -3 -15 -20 -18 -43 -26 -42 -21 3 4 29 2 35 -10 30 -12 -4 -14 -1 -9 14
6 19 -6 26 -58 34 -22 3 -30 12 -34 37 -2 12 -10 30 -18 42 -18 26 -20 51 -3
41 7 -4 2 6 -9 22 -20 28 -20 31 -5 41 22 15 26 15 40 1z m1731 -114 c12 -15
21 -40 21 -55 0 -24 -4 -29 -25 -29 -14 0 -25 -5 -25 -11 0 -6 15 -9 37 -7 35
3 37 1 45 -32 12 -56 5 -64 -55 -56 -51 5 -54 5 -63 -22 -9 -22 -10 -16 -7 36
1 35 10 73 18 86 15 23 14 25 -17 50 -18 14 -28 26 -21 26 7 0 10 7 7 15 -4 8
-2 15 4 15 6 0 13 -6 15 -12 3 -8 6 -6 6 5 1 26 37 21 60 -9z m-2665 -370 c23
-9 19 -24 -6 -25 -39 -1 48 -35 132 -52 192 -40 230 -49 230 -57 0 -11 -26
-18 -100 -25 -30 -3 -65 -7 -77 -9 -13 -3 -25 0 -28 5 -4 5 -11 7 -16 3 -5 -3
-6 -11 -2 -17 4 -7 -1 -6 -10 2 -14 11 -15 17 -5 30 9 11 5 10 -9 -3 -22 -18
-22 -18 -18 2 5 27 -35 39 -42 12 -10 -38 -58 -32 -58 7 0 17 -53 41 -92 42
-13 1 -23 4 -23 9 0 4 -14 13 -31 21 l-31 14 48 23 c48 22 107 30 138 18z
m1157 -6 c3 -68 29 -111 73 -123 53 -15 95 -39 105 -61 15 -33 14 -42 -1 -21
-7 10 -31 19 -53 21 -22 3 -52 9 -67 15 -33 12 -48 -3 -18 -19 11 -6 20 -7 20
-3 0 16 29 -33 30 -50 0 -10 3 -16 8 -14 4 3 8 -6 8 -19 1 -14 7 -31 14 -39
13 -16 65 -21 56 -6 -4 5 5 4 18 -2 15 -7 29 -26 35 -48 14 -46 14 -52 -1 -43
-8 5 -9 -2 -5 -24 4 -19 2 -32 -3 -32 -6 0 -10 8 -10 19 0 14 -10 20 -42 25
l-43 7 -33 102 c-24 76 -38 105 -54 112 -40 19 -56 55 -60 138 -3 57 0 77 9
77 7 0 13 -6 14 -12z m549 -219 c0 -5 12 -4 26 1 34 13 81 13 90 -1 4 -8 -7
-9 -37 -5 l-44 5 38 -10 c25 -8 37 -17 37 -29 0 -30 -38 -35 -60 -8 -21 25
-26 18 -10 -12 17 -32 -9 -34 -27 -2 -20 35 -63 42 -63 10 0 -20 0 -20 -17 1
-10 12 -23 18 -29 13 -17 -11 -54 -88 -54 -112 0 -11 -4 -20 -9 -20 -5 0 -15
-2 -23 -5 -15 -6 -37 46 -45 107 l-5 36 54 15 c103 29 118 31 119 10 0 -14 2
-15 6 -3 3 8 11 18 16 22 12 8 37 -1 37 -13z m215 -110 c4 -6 34 -23 67 -38
l60 -28 -22 -21 c-16 -15 -28 -18 -44 -13 -11 5 -41 11 -66 14 -25 3 -37 3
-27 0 9 -2 14 -9 11 -15 -4 -6 -3 -8 3 -5 6 4 10 -6 11 -22 0 -24 -3 -27 -24
-23 -13 2 -24 9 -24 14 0 5 -4 7 -10 3 -5 -3 -7 -12 -4 -19 3 -8 -4 -16 -15
-19 -12 -3 -21 0 -22 6 0 7 -4 3 -9 -8 -8 -19 -8 -19 -16 -1 -5 14 -1 24 14
37 12 9 22 20 22 24 0 4 -6 2 -14 -4 -17 -14 -23 -6 -22 29 1 23 6 26 58 34
56 8 57 9 51 37 -5 29 9 40 22 18z m-2268 -199 c27 -18 59 -74 68 -122 4 -20
18 -51 31 -69 13 -18 24 -40 24 -48 0 -9 7 -29 16 -46 9 -16 34 -66 56 -109
22 -44 53 -99 69 -123 28 -41 36 -88 15 -88 -9 0 -53 64 -78 115 -7 14 -15 27
-18 30 -14 14 -33 58 -56 133 -31 99 -38 107 -62 79 -11 -12 -22 -22 -26 -22
-4 0 -5 30 -2 68 11 125 -44 203 -143 201 -41 0 -43 -1 -21 -10 19 -8 21 -12
11 -19 -16 -9 -43 -2 -53 15 -7 12 -42 9 -108 -11 -14 -4 -22 -3 -18 1 4 4 36
16 70 26 72 21 190 21 225 -1z m2723 -453 c37 -19 178 -21 218 -4 39 16 82 11
82 -10 0 -8 5 -11 10 -8 6 3 10 2 10 -2 0 -8 19 -13 63 -16 9 -1 17 -5 17 -10
0 -5 6 -4 14 2 10 8 16 9 21 1 3 -6 11 -8 16 -5 5 4 9 2 9 -3 0 -6 9 -8 20 -5
11 3 20 0 20 -6 0 -6 3 -10 8 -9 27 6 161 -56 143 -66 -5 -4 -13 -1 -16 5 -4
5 -13 8 -21 5 -8 -3 -14 -2 -14 2 0 4 -30 7 -67 7 -38 0 -87 4 -110 8 -23 4
-55 10 -70 12 -179 25 -251 41 -288 65 -5 3 -29 13 -53 20 -24 7 -45 17 -48
22 -7 12 7 10 36 -5z m-3510 -267 c0 -5 5 -9 12 -7 18 3 15 -36 -4 -51 -9 -7
-15 -18 -12 -26 5 -14 34 -18 34 -4 0 15 41 8 47 -8 4 -11 8 -12 13 -4 13 20
67 -19 101 -72 17 -26 28 -51 25 -57 -3 -5 3 -11 14 -14 25 -7 18 -28 -15 -44
-17 -8 -25 -8 -25 0 0 6 -3 7 -6 4 -12 -11 17 -36 37 -32 11 2 17 0 14 -6 -4
-5 -10 -7 -15 -4 -11 7 -50 -34 -50 -51 0 -6 -8 -11 -17 -10 -10 0 -17 -5 -15
-12 1 -8 -2 -11 -8 -7 -8 5 -8 11 0 20 7 8 9 19 5 26 -5 7 -1 9 11 5 26 -8 49
27 29 44 -11 9 -12 7 -8 -9 6 -25 -15 -29 -24 -5 -3 9 -8 12 -12 5 -10 -16
-33 4 -36 33 -2 14 1 26 6 26 6 0 8 4 5 9 -3 4 5 6 18 4 37 -7 40 14 3 22 -17
4 -36 7 -40 6 -5 -1 -6 3 -3 8 4 5 2 12 -4 16 -5 3 -10 -2 -11 -12 0 -11 -3
-13 -6 -5 -2 6 -9 10 -14 6 -5 -3 -9 2 -9 11 0 9 -4 14 -9 10 -5 -3 -12 3 -14
12 -3 10 -5 -9 -6 -42 -1 -72 8 -113 20 -93 6 8 9 -6 10 -37 0 -37 3 -45 9
-30 11 25 11 24 15 -50 2 -52 30 -139 58 -182 10 -16 27 -17 27 -2 0 5 -4 7
-10 4 -6 -4 -10 5 -10 20 0 18 -4 24 -12 19 -9 -5 -9 -2 1 9 7 9 10 17 6 17
-4 0 -2 7 5 15 7 8 8 15 3 15 -5 0 -10 18 -10 41 -1 38 0 39 17 22 12 -12 14
-20 6 -25 -8 -6 -8 -8 0 -8 21 0 36 29 30 57 -5 22 -4 25 5 13 9 -12 10 -11 6
7 -3 13 3 31 14 44 10 12 19 18 19 13 0 -6 -4 -14 -8 -19 -17 -19 -33 -125
-26 -171 9 -64 56 -122 128 -158 51 -27 69 -30 169 -33 97 -4 279 12 382 32
17 3 44 7 60 8 17 2 36 6 42 10 8 5 15 -1 19 -18 5 -21 9 -23 21 -14 11 10 13
9 11 -2 -2 -8 3 -13 11 -11 8 2 11 -3 8 -12 -4 -9 -1 -15 6 -13 7 1 11 -6 11
-15 -1 -10 2 -18 7 -18 5 0 9 -7 9 -16 0 -9 5 -12 12 -8 7 4 8 3 4 -4 -13 -22
-15 -52 -3 -49 7 1 11 -4 9 -11 -1 -8 2 -11 8 -7 5 3 10 1 10 -6 0 -10 3 -10
13 0 8 10 9 15 1 18 -6 2 -20 11 -30 19 -18 14 -18 14 4 4 13 -6 35 -13 50
-15 15 -1 30 -3 34 -4 14 -2 -5 -37 -29 -55 -23 -17 -26 -17 -20 -3 3 9 3 17
-1 17 -4 0 -17 3 -29 6 -16 5 -21 2 -20 -13 1 -10 7 -21 12 -25 6 -4 2 -8 -7
-8 -10 0 -18 -5 -18 -11 0 -10 -29 -43 -39 -45 -3 0 -18 -6 -33 -12 -37 -15
-134 -40 -183 -47 -100 -14 -115 -17 -115 -26 0 -5 -9 -9 -20 -9 -11 0 -20 5
-20 10 0 6 -11 10 -25 10 -15 0 -39 7 -55 15 -23 12 -30 13 -31 3 -1 -7 -4 -2
-8 12 -4 14 -16 29 -28 35 -29 12 -89 115 -111 188 -13 43 -21 56 -32 51 -31
-12 -54 -13 -67 -3 -8 7 -13 8 -13 1 0 -5 -11 -13 -25 -16 -14 -4 -25 -11 -25
-18 0 -6 -9 -3 -20 7 -24 22 -50 14 -43 -14 3 -12 1 -21 -4 -21 -10 0 -43 90
-43 116 0 8 -4 14 -9 14 -5 0 -21 30 -36 68 -38 95 -40 100 -21 77 15 -19 15
-17 2 20 -7 22 -26 81 -41 130 -16 50 -36 101 -46 115 -11 17 -14 31 -9 41 5
8 5 33 0 55 -4 21 -11 60 -15 87 -6 48 -24 65 -26 25 0 -22 -1 -22 -8 -3 -13
32 -22 81 -14 70 4 -5 19 -11 32 -13 17 -2 22 2 17 13 -3 9 -2 13 3 10 5 -3
12 -1 16 5 8 13 25 13 25 0z m2019 0 c5 0 8 -14 9 -31 0 -17 5 -36 10 -42 26
-33 47 -143 32 -167 -9 -13 -11 -13 -20 0 -5 8 -12 33 -16 55 -3 22 -11 46
-16 53 -6 6 -7 12 -3 12 5 0 1 8 -8 18 -10 10 -14 22 -10 27 5 4 -1 5 -12 0
-112 -44 -165 -49 -165 -16 0 13 17 27 52 45 29 14 58 26 65 26 7 0 13 5 13
11 0 5 4 8 9 4 5 -3 13 0 16 6 4 5 14 8 22 5 8 -3 18 -6 22 -6z m397 -110 c0
-12 -7 -25 -15 -29 -9 -6 -10 -11 -2 -15 6 -4 11 -2 11 3 0 6 5 11 11 11 5 0
8 -4 4 -9 -9 -15 47 -89 70 -93 11 -2 37 4 57 14 21 10 47 18 58 18 12 0 19 4
16 9 -3 5 25 16 62 25 97 24 187 2 239 -57 14 -17 28 -24 42 -20 18 5 22 -8
11 -37 -7 -18 -3 -37 10 -48 8 -8 10 -11 3 -8 -9 5 -10 -4 -6 -31 3 -21 7 -40
9 -42 2 -2 -8 -17 -21 -33 -14 -16 -25 -38 -25 -49 0 -11 -7 -22 -16 -26 -8
-3 -13 -12 -10 -20 5 -11 1 -13 -16 -7 -20 6 -21 5 -10 -9 11 -13 10 -18 -10
-28 -13 -7 -27 -12 -31 -11 -5 1 -6 -2 -3 -7 6 -9 -23 -25 -31 -18 -7 8 39 57
53 57 8 0 13 3 12 8 -1 4 6 20 17 36 11 16 20 35 21 43 2 8 11 21 21 29 12 10
13 12 3 9 -11 -4 -16 2 -17 17 -2 18 0 20 7 8 5 -8 10 -10 10 -4 0 15 -27 37
-32 27 -3 -4 -3 -2 -2 4 2 7 0 23 -5 35 l-8 23 -7 -23 c-8 -25 -28 -29 -45 -8
-10 12 -8 17 8 26 16 8 21 8 21 -2 0 -10 3 -9 9 1 7 10 3 22 -12 37 -17 18
-26 20 -46 13 -21 -8 -22 -8 -11 6 11 14 7 19 -13 16 -4 -1 -17 4 -29 10 -15
8 -18 8 -14 0 4 -6 0 -11 -9 -11 -9 0 -13 5 -10 10 9 14 -8 12 -24 -2 -10 -9
-12 -9 -7 -1 3 6 2 14 -4 18 -5 3 -10 2 -10 -2 0 -5 -10 -10 -22 -10 -13 -1
-24 -7 -26 -13 -2 -5 -8 -8 -13 -4 -5 3 -9 0 -9 -6 0 -6 -10 -8 -25 -4 -16 4
-25 2 -25 -6 0 -6 -4 -9 -9 -5 -5 3 -16 -2 -25 -10 -8 -9 -18 -16 -21 -15 -21
1 -25 -1 -19 -12 5 -7 3 -8 -7 -2 -8 4 -27 9 -44 9 -16 0 -31 4 -32 8 -1 4 -9
19 -17 33 -9 13 -14 24 -11 24 3 0 1 6 -5 13 -6 6 -21 25 -34 41 -16 20 -34
29 -55 30 -22 1 -31 6 -31 18 0 20 50 39 81 31 18 -5 21 -3 16 10 -4 10 0 17
11 20 33 9 39 7 38 -13z m-2516 -519 c19 -27 38 -47 41 -45 3 2 20 -17 38 -41
17 -24 36 -47 42 -51 10 -6 -16 48 -47 96 -9 14 0 7 20 -14 20 -22 36 -45 36
-51 0 -7 14 -38 31 -70 17 -31 27 -60 23 -64 -4 -3 -9 -1 -11 6 -4 12 -95 129
-115 148 -15 14 7 -27 42 -79 17 -24 30 -47 30 -50 0 -4 9 -16 20 -28 11 -12
18 -24 15 -26 -3 -3 -15 8 -27 24 -24 31 -33 40 -153 150 -43 41 -75 74 -70
74 6 0 40 -29 78 -64 66 -62 91 -77 43 -24 -14 14 -22 29 -19 32 4 3 2 6 -4 6
-15 0 -55 69 -47 81 3 6 0 16 -6 24 -7 8 -9 15 -4 15 5 0 25 -22 44 -49z
m-136 -1500 c1 -22 76 -81 104 -81 28 0 49 -22 56 -57 4 -25 2 -33 -9 -33 -8
0 -15 5 -15 10 0 6 -7 10 -15 10 -8 0 -15 -4 -15 -10 0 -5 -7 -10 -15 -10 -8
0 -15 5 -15 10 0 6 -11 10 -25 10 -14 0 -25 -5 -25 -11 0 -6 -7 -9 -15 -5 -11
4 -15 -2 -15 -20 0 -22 -2 -24 -15 -11 -12 12 -12 21 -4 46 6 17 16 31 22 31
7 0 -2 10 -20 22 -49 35 -56 52 -32 82 11 14 17 26 14 26 -4 0 -2 7 5 15 15
19 32 7 34 -24z"/>
<path d="M4917 4423 c-4 -3 -7 -19 -7 -34 0 -15 -6 -29 -13 -32 -24 -9 -14
-73 16 -105 32 -33 34 -42 8 -35 -11 3 -21 -2 -25 -12 -3 -9 -2 -13 4 -10 6 3
10 1 10 -5 0 -6 6 -8 13 -4 6 4 4 -1 -5 -11 -15 -16 -19 -16 -34 -4 -10 8 -15
9 -11 3 4 -7 -5 -17 -23 -24 -16 -7 -32 -20 -35 -30 -3 -10 -15 -20 -25 -23
-39 -10 -19 -24 28 -19 35 3 51 0 61 -11 10 -13 9 -17 -8 -27 -21 -10 -27 -61
-8 -57 5 1 12 -4 15 -12 3 -8 0 -11 -7 -7 -6 4 -11 2 -11 -5 0 -7 -6 -5 -14 6
-13 18 -14 18 -39 -1 -31 -22 -34 -33 -9 -35 65 -6 110 -19 116 -35 3 -8 0
-14 -7 -14 -8 0 -7 -4 3 -11 12 -8 10 -10 -10 -6 -14 2 -33 8 -42 12 -13 5
-18 3 -18 -9 0 -9 -6 -15 -12 -14 -7 2 -12 -2 -11 -8 1 -6 -8 -9 -21 -7 -14 3
-34 -5 -53 -21 -17 -14 -35 -26 -41 -26 -14 0 -72 -71 -66 -81 3 -5 -4 -23
-16 -39 l-22 -30 48 25 c26 14 53 25 61 25 8 0 25 11 39 26 14 14 31 23 37 21
12 -4 18 -47 6 -47 -4 0 -19 -24 -33 -54 -17 -35 -34 -57 -48 -61 -35 -11 -58
-36 -58 -63 0 -20 -2 -22 -15 -12 -8 6 -20 10 -27 7 -9 -4 -7 -6 4 -6 15 -1
31 -29 33 -56 0 -5 7 -10 15 -11 134 -5 172 -33 165 -123 -5 -62 -11 -74 -35
-66 -19 6 -70 -13 -70 -27 0 -4 -7 -8 -16 -8 -9 0 -31 -16 -50 -35 -18 -19
-38 -35 -43 -35 -5 0 -11 -4 -13 -9 -1 -5 -16 -13 -32 -17 -26 -6 -27 -5 -17
14 13 25 -6 46 -29 31 -13 -8 -13 -10 0 -19 13 -9 7 -14 -12 -11 -5 0 -8 -5
-8 -13 0 -24 -60 -78 -82 -73 -14 4 -18 2 -14 -9 3 -7 2 -13 -2 -13 -19 3 -23
-2 -12 -16 10 -12 8 -20 -9 -41 -17 -22 -19 -30 -9 -43 7 -9 8 -13 3 -8 -4 4
-19 -3 -31 -14 -20 -18 -26 -20 -39 -9 -12 10 -19 10 -28 1 -17 -17 4 -45 37
-49 27 -3 27 -4 11 -29 -12 -18 -14 -28 -6 -33 9 -5 9 -19 2 -51 -7 -30 -7
-47 1 -56 8 -10 6 -13 -7 -13 -20 0 -15 -24 6 -26 8 0 29 -2 47 -2 23 -2 32
-7 32 -19 0 -17 -52 -60 -75 -64 -5 0 -23 -20 -40 -43 -16 -23 -32 -43 -35
-44 -31 -6 -60 -25 -65 -43 -4 -13 -16 -30 -26 -38 -14 -13 -15 -21 -8 -40 9
-23 11 -23 26 -8 16 16 16 18 -1 30 -18 13 -18 14 4 20 15 4 21 11 17 21 -9
22 52 54 64 35 10 -16 2 -29 -17 -29 -8 0 -14 -4 -14 -8 0 -5 14 -7 30 -4 24
3 29 8 25 22 -7 21 3 50 17 50 5 0 16 -6 23 -14 12 -12 11 -16 -5 -31 -22 -20
-16 -43 6 -24 28 23 29 -3 2 -26 -16 -13 -28 -28 -28 -33 0 -5 -9 -17 -20 -27
-28 -25 -25 -36 7 -24 19 7 28 6 33 -1 4 -7 11 -12 16 -12 12 1 6 -28 -9 -43
-7 -6 -17 -10 -23 -8 -13 4 -39 -25 -30 -34 3 -3 18 0 33 7 32 15 253 27 253
14 0 -12 -41 -38 -60 -39 -8 0 -22 -5 -30 -10 -8 -5 -33 -19 -55 -30 -25 -12
-39 -26 -37 -36 1 -9 -5 -22 -13 -29 -21 -17 -19 -29 5 -27 11 1 20 6 20 12 0
5 5 3 10 -5 5 -8 10 -12 10 -8 0 4 14 3 30 -2 17 -5 28 -5 25 -1 -7 13 43 20
74 11 14 -4 25 -11 24 -17 -1 -5 12 -10 28 -11 21 -2 28 1 23 9 -5 8 -3 9 5 5
7 -5 10 -14 8 -20 -4 -9 5 -12 24 -11 20 1 29 -3 29 -14 0 -11 3 -12 12 -3 8
8 17 8 30 1 10 -6 26 -9 36 -8 39 3 72 -2 72 -12 0 -5 -6 -7 -12 -3 -7 4 -2
-5 11 -19 23 -26 41 -28 41 -4 0 8 -3 8 -9 -1 -6 -10 -10 -10 -21 3 -11 13
-10 15 10 12 13 -2 28 -11 35 -20 13 -18 30 -24 20 -7 -4 6 -1 9 7 8 23 -5 91
-108 70 -108 -10 0 -8 -112 2 -129 6 -9 5 -12 -1 -8 -6 4 -13 0 -17 -8 -3 -8
-1 -17 4 -20 15 -9 12 -27 -2 -20 -7 4 -6 1 3 -7 12 -10 14 -31 12 -93 -5
-144 -7 -164 -18 -162 -5 1 -9 -4 -7 -11 1 -8 -2 -11 -8 -7 -8 5 -7 11 2 22
24 30 18 40 -23 38 -22 -1 -43 -5 -46 -9 -3 -3 -12 -1 -19 5 -9 8 -11 5 -8
-13 l5 -23 -10 22 c-7 15 -16 21 -26 17 -12 -5 -13 -9 -4 -21 10 -11 9 -13 -2
-11 -8 2 -13 -3 -11 -10 1 -8 -2 -11 -9 -6 -9 5 -10 2 -6 -10 4 -10 3 -15 -3
-11 -13 8 -13 21 3 37 17 18 20 39 5 36 -7 -2 -12 3 -13 10 0 6 -4 11 -10 10
-5 -2 -9 -6 -7 -10 1 -5 -2 -8 -8 -8 -5 0 -10 -9 -10 -20 0 -11 5 -20 11 -20
6 0 9 7 6 15 -4 8 -1 17 5 21 7 5 8 2 3 -6 -6 -9 -4 -11 4 -5 10 6 11 3 1 -15
-8 -15 -17 -19 -28 -15 -16 7 -39 13 -54 14 -4 1 -5 8 -1 16 5 14 7 14 23 0
12 -11 17 -12 17 -3 0 7 4 22 9 33 8 19 7 19 -10 2 -19 -18 -41 -14 -30 6 4 7
3 8 -2 4 -5 -5 -10 -13 -10 -18 -1 -5 -2 -14 -3 -20 0 -5 -6 -7 -12 -3 -7 4
-10 1 -7 -7 2 -8 20 -19 39 -26 19 -7 28 -12 22 -12 -7 -1 -13 -6 -13 -11 0
-12 22 -9 31 4 4 4 10 3 13 -3 4 -6 2 -12 -3 -12 -6 -1 -17 -2 -23 -3 -7 -1
-20 7 -30 18 -14 17 -18 18 -33 6 -9 -7 -14 -19 -11 -27 3 -7 1 -13 -5 -13 -5
0 -8 12 -7 28 2 17 -1 26 -10 24 -6 -1 -11 1 -10 5 2 5 -1 8 -7 8 -5 0 -9 -3
-8 -7 2 -4 -4 -5 -11 -2 -18 7 -28 32 -16 39 6 4 10 -2 11 -12 0 -11 3 -13 6
-5 3 7 -1 19 -7 28 -7 8 -10 18 -6 21 4 4 10 3 14 -3 10 -15 39 -13 39 3 0 9
-4 10 -14 2 -12 -11 -17 -5 -14 14 1 5 -3 6 -9 2 -5 -3 -20 -8 -31 -10 -26 -5
-35 -13 -25 -22 4 -4 11 -2 15 6 7 10 9 10 14 -1 3 -8 -4 -20 -15 -27 -11 -7
-17 -8 -14 -3 3 6 -1 9 -10 8 -19 -3 -35 -26 -27 -40 3 -5 1 -6 -4 -3 -6 4
-14 0 -17 -9 -8 -21 -8 -24 5 -24 5 0 7 5 4 10 -3 6 -2 10 4 10 18 0 21 -18 5
-24 -22 -8 -37 3 -31 24 4 15 1 17 -16 11 -23 -9 -35 -31 -17 -31 6 0 8 5 5
10 -3 5 -1 10 5 10 7 0 10 -7 7 -15 -4 -8 -2 -17 4 -20 5 -4 7 -11 3 -16 -3
-5 -10 -7 -15 -4 -5 4 -9 0 -9 -7 0 -8 -5 -6 -11 5 -9 15 -13 16 -27 5 -15
-12 -16 -11 -3 5 9 11 10 17 2 17 -6 0 -16 -10 -21 -22 -5 -13 -9 -17 -9 -10
-1 6 -6 12 -12 12 -5 0 -7 -6 -3 -12 4 -7 -2 -5 -14 6 -12 10 -19 23 -15 29 3
6 1 7 -5 3 -7 -4 -12 -3 -12 3 0 5 5 11 11 13 6 2 2 11 -9 21 -19 17 -19 17
-16 -8 1 -14 7 -32 14 -39 16 -20 20 -55 8 -62 -7 -4 -8 -2 -4 4 4 7 0 12 -11
13 -16 0 -16 1 2 9 11 5 17 9 13 11 -22 5 -34 4 -40 -6 -5 -6 -8 -3 -8 7 0 9
5 18 12 20 7 3 5 7 -6 11 -9 4 -15 3 -12 -2 3 -4 -1 -17 -9 -27 -12 -16 -16
-17 -27 -5 -8 8 -8 11 -1 7 16 -9 28 13 14 27 -9 9 -10 7 -5 -8 7 -18 6 -18
-9 -7 -14 12 -16 11 -12 -8 3 -14 0 -20 -8 -17 -7 2 -12 13 -12 24 0 12 -3 25
-7 29 -4 3 -6 -3 -3 -15 2 -11 0 -21 -6 -21 -5 0 -9 5 -9 12 0 6 -3 9 -6 5 -3
-3 -1 -14 5 -24 6 -10 11 -14 11 -9 0 11 30 -14 30 -25 0 -5 -8 -5 -17 -2 -12
5 -15 2 -10 -9 3 -9 -1 -24 -9 -35 -9 -10 -12 -12 -8 -4 5 10 3 12 -6 6 -8 -5
-18 -1 -27 10 -9 14 -13 15 -13 4 0 -11 -2 -12 -9 0 -6 9 -11 10 -15 2 -6 -10
6 -15 27 -12 4 0 7 -4 7 -10 0 -6 -9 -8 -20 -4 -12 4 -20 2 -20 -6 0 -9 -3 -9
-15 1 -8 6 -18 9 -24 6 -5 -3 -11 -1 -13 6 -3 9 -9 8 -22 -5 -22 -21 -32 -22
-44 0 -7 11 -15 14 -28 8 -29 -12 -45 -14 -38 -4 3 5 1 9 -4 9 -6 0 -12 6 -15
14 -4 9 0 13 10 12 9 -2 24 4 33 13 44 42 73 62 88 60 31 -3 65 1 60 7 -3 3
-19 6 -34 7 -19 2 -29 8 -28 18 1 13 -9 15 -50 12 -80 -5 -77 -4 -64 -21 11
-12 5 -14 -40 -11 -30 2 -51 0 -49 -6 2 -5 20 -9 40 -8 30 0 35 -2 26 -13 -8
-10 -16 -11 -30 -3 -13 7 -19 6 -19 -1 0 -6 -4 -9 -9 -6 -12 8 -27 -14 -28
-40 -1 -14 8 -24 25 -31 26 -11 26 -11 4 -12 -31 -1 -25 -32 8 -42 14 -4 61
-17 105 -29 44 -12 118 -36 165 -52 47 -16 91 -31 98 -32 7 -1 18 -8 24 -14 7
-7 20 -12 30 -12 19 0 100 -30 108 -40 10 -12 62 -30 71 -25 5 4 9 3 9 -2 0
-4 28 -19 62 -33 34 -14 92 -40 128 -59 36 -19 75 -39 87 -45 13 -6 23 -15 23
-19 0 -5 4 -6 9 -2 5 3 12 1 16 -5 4 -6 10 -8 15 -5 12 7 31 -30 22 -41 -4 -5
2 -2 12 6 16 12 18 12 11 1 -6 -11 -3 -13 13 -9 12 4 25 2 28 -3 3 -5 9 -7 13
-4 5 2 18 -7 31 -20 13 -13 27 -22 33 -18 6 3 7 1 3 -5 -3 -6 3 -13 14 -17 11
-3 20 -11 20 -17 0 -6 -7 -5 -17 3 -14 11 -14 8 2 -11 11 -14 21 -27 22 -29 2
-2 3 70 3 161 l0 166 -26 0 c-28 0 -52 17 -40 29 4 4 20 2 36 -4 l30 -11 0 99
c0 80 -3 101 -15 105 -11 5 -13 10 -5 19 5 6 7 15 3 18 -3 4 -1 7 5 7 9 0 12
214 12 869 l0 869 -26 0 c-27 0 -52 17 -41 28 3 3 19 2 36 -4 l30 -11 1 600
c0 466 -2 603 -12 620 -10 17 -10 23 0 26 7 3 12 21 12 43 0 40 -21 56 -53 39
-20 -11 -47 -1 -47 17 0 8 11 20 25 26 14 6 25 19 25 28 0 20 -24 43 -33 33z
m-201 -1398 c4 -8 13 -15 20 -15 27 0 25 -27 -6 -59 -16 -18 -30 -30 -30 -25
0 4 7 15 16 25 12 13 12 19 3 25 -7 4 -10 3 -5 -4 3 -6 2 -13 -3 -16 -5 -4
-12 -2 -16 4 -9 14 -38 12 -32 -2 2 -7 11 -12 21 -10 20 4 20 -2 0 -22 -9 -9
-11 -16 -4 -16 6 0 9 -4 5 -10 -11 -18 -33 1 -29 25 2 13 0 26 -5 29 -4 3 -7
-17 -6 -43 2 -37 -1 -48 -11 -44 -8 3 -16 -6 -20 -23 -9 -35 -34 -83 -34 -66
0 8 -9 12 -20 10 -10 -2 -19 0 -20 5 0 4 2 7 5 7 8 0 39 34 54 60 12 21 11 25
-5 37 -10 7 -21 13 -25 13 -3 0 -4 12 -2 28 5 26 4 26 -10 7 -29 -40 -67 -115
-58 -115 5 0 13 5 16 10 3 6 11 10 16 10 6 0 7 -4 4 -10 -3 -5 0 -10 7 -10 9
-1 7 -5 -4 -14 -10 -7 -18 -22 -19 -32 0 -15 -2 -16 -7 -4 -6 14 -9 14 -24 -2
-10 -10 -14 -18 -9 -18 5 0 7 -9 4 -21 -3 -11 -11 -18 -18 -15 -7 2 -25 -9
-41 -25 -43 -45 -129 -38 -89 8 8 10 33 39 56 65 l41 48 -26 10 c-22 8 -25 12
-15 27 24 37 81 75 145 99 37 13 81 35 98 48 50 37 74 44 82 21z m9 -477 c5 4
5 1 1 -5 -4 -7 -2 -13 4 -13 6 0 9 -4 6 -9 -3 -5 -15 -7 -26 -4 -11 3 -20 0
-20 -6 0 -6 6 -11 13 -11 6 0 -1 -7 -17 -15 -30 -16 -43 -14 -31 4 3 6 12 8
18 5 9 -5 9 -4 0 6 -15 16 -62 -20 -91 -70 -25 -42 -74 -81 -91 -71 -8 5 -10
21 -5 48 5 32 3 41 -10 46 -10 4 -19 1 -22 -8 -4 -8 -15 -15 -25 -15 -29 0
-24 42 9 72 25 24 32 25 121 23 80 -2 97 0 114 16 14 13 24 16 32 9 7 -5 16
-6 20 -2z"/>
<path d="M4521 3521 c-23 -36 -59 -63 -88 -65 -6 -1 -22 -10 -35 -22 -32 -28
-53 -40 -44 -26 18 29 -65 39 -108 13 -25 -16 -35 -18 -44 -9 -7 7 -12 8 -12
4 0 -5 -7 -3 -15 4 -16 13 -23 11 -87 -21 -11 -5 -18 -4 -21 4 -4 9 -6 9 -6
-1 -1 -10 -6 -9 -23 2 -28 17 -57 8 -85 -28 -11 -14 -23 -22 -27 -18 -4 3 -4
-1 0 -11 4 -11 1 -17 -8 -17 -7 0 -19 -9 -26 -20 -7 -12 -17 -18 -21 -15 -5 2
-12 -2 -15 -11 -4 -10 -2 -13 7 -8 6 4 1 -4 -13 -18 -14 -15 -40 -43 -59 -63
-26 -28 -39 -35 -57 -31 -12 3 -33 2 -46 -3 -18 -7 -30 -3 -57 21 -27 24 -36
27 -43 16 -7 -10 -11 -10 -15 0 -5 14 -39 16 -47 4 -3 -5 13 -19 34 -31 46
-26 71 -57 63 -78 -5 -13 2 -14 38 -10 50 6 341 54 379 63 14 3 43 6 65 8 22
1 45 5 52 9 6 4 15 3 18 -3 5 -8 12 -7 23 2 10 7 7 1 -6 -13 -12 -14 -20 -27
-18 -30 2 -2 -14 -5 -36 -6 -22 -2 -46 -7 -53 -13 -6 -5 -16 -6 -21 -2 -4 4
-2 -2 6 -12 14 -18 14 -19 -7 -8 -30 16 -38 0 -18 -37 8 -17 15 -39 15 -50 0
-26 26 -51 53 -51 11 0 31 -10 44 -22 26 -25 40 -19 24 11 -9 16 -8 22 6 30
27 15 8 25 -46 24 -48 0 -49 0 -39 23 9 19 19 24 52 25 23 1 46 1 52 0 6 -1
17 19 24 44 7 25 18 45 24 45 15 0 47 -77 39 -96 -3 -7 0 -14 6 -14 6 0 12 5
12 10 1 6 2 16 3 23 1 6 -2 15 -7 18 -13 9 79 94 124 114 32 15 38 22 33 40
-3 13 1 27 10 34 19 16 10 41 -15 41 -35 0 -23 44 26 88 39 35 44 44 40 73 -4
35 16 69 42 69 19 0 12 34 -7 38 -9 1 -26 -15 -39 -37z"/>
<path d="M2087 3494 c-3 -3 10 -28 29 -56 30 -43 33 -55 28 -91 -4 -23 -11
-50 -16 -59 -5 -12 -5 -18 2 -18 5 0 10 6 10 14 0 8 6 16 12 18 14 5 38 -15
38 -30 0 -11 -28 -24 -39 -18 -4 3 -5 -8 -3 -25 2 -16 7 -29 11 -29 23 0 172
147 171 168 0 4 -7 16 -16 27 -13 17 -16 18 -24 5 -5 -8 -10 -10 -10 -3 0 12
-52 33 -84 33 -12 0 -27 9 -34 20 -7 11 -19 20 -26 20 -8 0 -21 7 -29 15 -8 8
-17 12 -20 9z"/>
<path d="M4678 3366 c-10 -24 -77 -76 -97 -76 -5 0 -11 7 -13 16 -2 13 -8 12
-30 -8 -32 -27 -35 -38 -13 -38 9 0 18 -7 21 -15 8 -19 30 -19 41 -1 14 24 87
56 129 56 36 0 74 21 74 42 0 17 -40 44 -68 46 -26 2 -35 -3 -44 -22z"/>
<path d="M2886 3211 c-11 -11 -16 -21 -11 -21 4 0 -3 -9 -16 -19 -13 -10 -33
-36 -44 -57 -11 -22 -39 -67 -62 -102 -24 -34 -43 -64 -43 -67 0 -3 17 -5 38
-5 56 0 76 -8 97 -40 20 -29 20 -29 29 -7 5 12 10 24 10 27 7 28 44 90 55 90
11 0 9 4 -4 14 -11 8 -22 13 -26 11 -3 -2 -6 2 -6 10 0 8 5 15 11 16 35 3 98
-4 141 -15 76 -21 124 -28 145 -21 17 5 18 9 7 33 -6 15 -17 33 -24 40 -7 7
-13 16 -13 20 0 4 -7 15 -15 25 -12 16 -18 17 -47 7 -35 -13 -95 1 -84 19 9
15 -17 28 -51 25 -18 -1 -33 3 -33 8 0 6 -6 6 -14 -1 -12 -10 -15 -8 -18 10
l-3 21 -19 -21z"/>
<path d="M3426 3205 c-15 -8 -47 -15 -71 -15 -28 0 -47 -6 -58 -18 -15 -16
-15 -20 7 -45 13 -15 28 -27 35 -27 14 0 18 -43 5 -78 -3 -10 -11 -8 -29 10
-14 12 -25 28 -25 35 0 6 -4 15 -10 18 -6 4 -7 -1 -3 -11 4 -12 3 -15 -5 -10
-8 5 -10 2 -6 -8 3 -9 10 -14 14 -11 5 3 11 1 15 -4 3 -5 -3 -14 -12 -20 -11
-7 -14 -14 -8 -18 12 -10 12 -43 1 -62 -5 -7 -5 -16 0 -20 5 -3 9 -15 9 -26 0
-11 15 -29 34 -42 39 -26 34 -30 -10 -8 -33 18 -51 8 -57 -30 -4 -25 -11 -31
-40 -40 -21 -6 -23 -5 -13 13 14 27 4 52 -20 52 -29 0 -63 -35 -55 -56 8 -20
-19 -64 -39 -64 -26 0 -37 -37 -20 -64 15 -22 14 -27 -4 -60 -12 -20 -18 -36
-16 -37 3 -1 16 -1 30 -1 44 0 47 2 42 22 -3 12 0 20 7 20 7 0 20 8 29 18 9
10 29 18 44 20 25 1 26 0 9 -9 -15 -9 -16 -13 -5 -20 11 -7 11 -9 1 -9 -7 0
-10 -4 -7 -10 3 -5 -2 -10 -12 -11 -12 0 -13 -2 -5 -6 10 -4 8 -9 -8 -20 -17
-12 -39 -47 -44 -73 -1 -3 -10 -18 -20 -33 -13 -20 -22 -25 -29 -18 -14 14
-27 14 -27 2 0 -6 -14 -30 -30 -55 -18 -27 -29 -53 -26 -68 2 -14 -6 -34 -20
-51 -13 -15 -21 -34 -18 -41 7 -18 -15 -31 -48 -27 -32 3 -43 -12 -28 -39 15
-27 3 -60 -20 -60 -11 0 -27 -11 -36 -25 -21 -33 -34 -32 -34 3 0 18 11 38 30
57 17 16 26 33 22 39 -4 6 -7 18 -6 26 1 8 2 20 3 27 0 7 17 20 36 29 25 12
35 23 35 40 0 15 13 33 35 51 39 31 45 58 15 66 -28 7 -25 33 5 53 25 17 34
57 15 69 -15 10 -12 34 9 64 28 39 36 94 17 114 -9 8 -16 29 -16 46 0 17 -4
31 -8 31 -5 0 -13 20 -19 44 -8 37 -7 48 6 62 15 15 15 16 -2 10 -14 -4 -20 0
-24 14 -6 23 -33 27 -33 5 0 -7 7 -18 17 -23 15 -9 14 -12 -5 -33 -39 -41 -28
-73 25 -72 6 0 11 -8 10 -18 -1 -11 -6 -18 -12 -15 -42 17 -45 18 -45 3 0 -9
-7 -23 -16 -31 -17 -18 -15 -19 41 -16 l40 1 -25 -25 c-14 -14 -35 -27 -48
-29 -13 -2 -34 -15 -46 -30 -13 -15 -26 -27 -30 -27 -4 0 -16 -9 -28 -20 -14
-13 -17 -20 -8 -20 9 0 8 -6 -5 -20 -10 -11 -14 -20 -9 -20 5 0 1 -5 -8 -11
-10 -5 -18 -17 -18 -25 0 -8 4 -13 9 -9 5 3 16 -4 24 -15 7 -11 16 -19 18 -17
2 1 -1 -3 -8 -9 -20 -17 8 -37 37 -26 26 10 70 4 70 -9 0 -5 -6 -6 -14 -3 -8
3 -17 1 -21 -5 -3 -6 -17 -11 -31 -11 -28 0 -54 -47 -33 -61 8 -5 5 -11 -10
-18 -12 -7 -19 -16 -16 -21 3 -5 -4 -11 -14 -15 -17 -5 -20 -14 -18 -52 1 -42
-1 -48 -28 -64 -38 -22 -45 -23 -45 -3 0 16 35 72 55 87 7 6 7 10 -1 13 -6 3
-19 11 -30 18 -17 13 -17 15 -1 40 10 15 16 38 13 54 -2 15 -5 30 -5 34 -1 4
-10 12 -22 18 -19 11 -20 9 -16 -18 3 -16 10 -39 17 -51 9 -19 9 -25 -4 -34
-18 -14 -57 -195 -44 -203 5 -4 25 -3 44 0 41 8 59 0 41 -18 -6 -8 -15 -12
-19 -9 -5 2 -8 -1 -8 -6 0 -33 166 -99 217 -87 16 5 23 2 23 -9 0 -8 9 -15 20
-15 11 0 20 -4 20 -8 0 -12 89 -42 142 -47 26 -3 56 -9 65 -15 37 -21 119 -53
131 -51 6 1 12 -3 12 -10 0 -6 7 -9 15 -5 8 3 15 1 15 -5 0 -7 12 -8 30 -4 20
4 37 2 47 -7 13 -10 17 -10 20 -1 4 10 8 9 20 -2 15 -16 83 -18 83 -3 0 4 -4
8 -10 8 -5 0 -10 4 -10 9 0 14 64 33 83 25 16 -6 23 11 18 40 -1 5 4 4 13 -3
11 -9 16 -9 22 0 4 8 3 9 -4 5 -8 -5 -12 1 -12 14 0 12 5 18 10 15 6 -3 10 3
10 14 0 12 5 21 11 21 5 0 7 5 4 10 -3 6 1 10 9 10 9 0 13 6 10 14 -3 8 -1 17
5 21 16 9 13 28 -2 22 -8 -3 -14 1 -14 9 0 7 4 11 8 8 4 -2 10 0 13 5 3 5 0
11 -8 14 -34 13 -1 57 57 76 34 11 59 31 40 31 -4 0 -23 9 -42 21 l-33 20 21
20 c25 24 26 32 5 64 -9 13 -13 29 -10 34 5 8 -18 29 -51 46 -8 4 24 55 34 55
19 0 53 -51 53 -81 0 -16 7 -32 17 -37 10 -6 16 -21 15 -43 0 -21 8 -43 25
-63 28 -33 54 -36 146 -14 34 9 47 17 47 29 0 17 20 39 20 22 0 -4 5 -15 10
-23 7 -12 13 -11 34 10 54 50 26 68 -101 65 -51 -1 -93 1 -93 6 0 5 38 9 85 9
84 0 86 0 96 27 6 16 22 43 36 61 16 22 22 37 16 43 -15 15 3 109 27 141 11
15 16 29 12 31 -7 4 -242 1 -252 -3 -3 -1 -13 -2 -22 -1 -10 1 -18 -3 -18 -8
0 -21 -17 -11 -30 17 -12 25 -13 26 -21 7 -7 -19 -8 -18 -8 3 -1 16 6 26 19
29 11 3 20 14 20 24 0 11 5 19 10 19 6 0 10 -9 10 -20 0 -19 4 -20 43 -15 23
3 89 8 147 10 l105 3 32 43 c42 57 41 69 -2 69 -59 0 -42 41 45 114 33 27 55
68 42 81 -3 3 -6 18 -7 33 -2 31 -14 62 -24 62 -14 0 -6 -91 9 -100 13 -8 12
-10 -3 -10 -10 0 -27 -9 -39 -20 l-22 -20 30 0 29 0 -30 -25 c-38 -31 -45 -31
-70 1 l-21 27 -41 -57 c-35 -50 -41 -55 -46 -36 -3 13 -10 19 -16 15 -6 -3 -9
-11 -6 -16 4 -5 -1 -9 -9 -9 -8 0 -20 -8 -25 -17 -10 -17 -10 -17 -11 0 0 19
-8 21 -29 8 -19 -12 26 -63 50 -56 11 4 18 -1 21 -17 3 -13 9 -31 13 -42 7
-17 6 -17 -21 -3 -16 8 -53 38 -82 66 -60 58 -81 62 -129 25 -18 -14 -38 -22
-43 -19 -6 3 -10 1 -10 -6 0 -8 -5 -8 -17 2 -10 7 -15 9 -11 5 5 -5 -1 -16
-12 -23 -19 -13 -19 -16 -5 -36 8 -12 15 -32 15 -45 0 -21 7 -18 71 37 38 34
73 61 77 61 11 0 93 -82 88 -87 -3 -3 -23 13 -46 35 l-42 40 -21 -22 c-13 -11
-42 -38 -66 -59 -33 -30 -42 -43 -37 -61 3 -13 -1 -31 -8 -41 -12 -17 -15 -15
-33 26 -31 69 -44 113 -46 155 -2 31 -6 40 -23 42 -17 2 -21 10 -21 46 0 30
-7 53 -22 72 -26 33 -13 44 24 20 23 -15 24 -15 18 1 -10 28 -35 53 -53 53 -9
0 -25 16 -36 36 -18 34 -18 36 -1 49 24 17 21 24 -18 58 -18 15 -38 41 -45 57
-14 35 -15 35 -54 15z"/>
<path d="M3773 3014 c4 -7 0 -17 -8 -24 -11 -9 -15 -9 -15 -1 0 7 -5 9 -10 6
-6 -4 -8 -10 -5 -15 6 -10 -21 -7 -31 3 -21 21 -31 5 -26 -40 2 -27 6 -50 8
-52 2 -2 35 -4 74 -6 39 -1 74 -5 77 -9 12 -12 19 -6 32 29 12 33 11 37 -11
55 -28 24 -37 25 -44 5 -4 -8 -10 -13 -14 -10 -5 3 -15 -2 -23 -10 -16 -16
-37 -20 -37 -8 0 4 12 20 27 35 22 23 25 30 13 41 -8 7 -10 7 -7 1z"/>
<path d="M2642 2817 c-34 -25 -42 -36 -36 -52 3 -11 7 -41 8 -67 0 -26 6 -51
11 -56 6 -5 40 -12 76 -15 60 -5 69 -4 87 16 14 14 19 30 16 43 -4 15 4 32 25
57 17 19 31 37 31 40 0 3 -17 3 -37 1 -33 -4 -44 0 -78 31 -22 19 -44 35 -50
35 -5 -1 -29 -15 -53 -33z"/>
<path d="M589 2367 c8 -11 12 -30 8 -50 -4 -25 1 -39 24 -67 16 -19 32 -52 35
-72 5 -29 12 -39 36 -47 16 -6 27 -15 23 -21 -3 -6 -11 -7 -17 -4 -8 5 -9 1
-5 -10 4 -10 7 -20 7 -22 0 -3 24 -16 52 -29 43 -20 57 -33 76 -72 17 -35 22
-41 19 -20 -3 18 0 27 9 27 8 0 14 -7 14 -15 0 -8 5 -15 10 -15 6 0 10 7 10
16 0 12 7 15 25 12 31 -6 32 4 3 36 -68 74 -121 157 -159 250 -13 32 -31 60
-39 63 -13 3 -58 21 -130 51 -13 5 -13 3 -1 -11z"/>
<path d="M3416 803 c-3 -3 -21 -7 -40 -9 -19 -2 -48 -10 -64 -18 -16 -8 -32
-12 -35 -9 -4 3 -12 1 -19 -4 -7 -6 -25 -13 -40 -17 -15 -3 -33 -16 -39 -28
-11 -21 -10 -21 52 -13 35 4 78 9 94 10 18 1 30 7 30 16 0 20 30 40 49 33 9
-3 16 -15 16 -26 0 -10 11 -30 25 -42 23 -21 29 -23 55 -13 17 6 30 15 30 20
0 18 -35 67 -47 67 -7 0 -13 4 -13 8 0 11 -46 32 -54 25z"/>
<path d="M4960 435 c0 -6 6 -20 14 -31 16 -22 19 -94 4 -94 -5 0 -6 5 -2 12 5
7 3 8 -6 3 -10 -6 -9 -11 4 -21 11 -8 13 -14 6 -19 -5 -3 -7 -11 -4 -17 10
-17 10 -68 0 -68 -4 0 -5 -7 -2 -16 3 -9 -1 -25 -9 -37 -8 -12 -15 -17 -15
-11 0 5 5 15 12 22 9 9 9 12 0 12 -7 0 -12 -5 -12 -11 0 -5 -4 -8 -9 -5 -4 3
-7 -6 -5 -19 1 -14 -2 -23 -7 -19 -5 3 -7 10 -4 15 4 5 2 9 -3 9 -6 0 -12 -7
-16 -15 -3 -8 -11 -15 -18 -15 -8 0 -9 3 -3 8 17 12 14 28 -5 28 -10 0 -16 -5
-13 -12 2 -6 -3 -14 -11 -17 -9 -4 -13 -13 -10 -21 3 -8 1 -16 -3 -19 -5 -3
-9 3 -10 13 -1 11 2 22 8 25 14 9 11 22 -7 29 -14 5 -15 4 -5 -8 8 -10 9 -16
1 -21 -5 -3 -10 -1 -10 5 0 6 -5 8 -12 4 -18 -11 -112 -4 -120 9 -6 9 -8 9 -8
-1 0 -9 -13 -13 -42 -12 -61 3 -68 1 -68 -11 0 -5 5 -7 10 -4 6 3 10 1 10 -5
0 -6 5 -8 13 -3 19 12 47 14 47 4 0 -15 -18 -23 -25 -11 -4 6 -11 8 -16 4 -5
-3 -7 -9 -5 -13 3 -3 -4 -7 -14 -7 -10 0 -18 5 -17 11 1 5 -8 10 -20 9 -12 0
-20 2 -18 6 2 3 -6 12 -18 20 -20 12 -21 12 -8 -4 8 -9 11 -20 7 -23 -4 -4
-11 -1 -16 7 -9 13 -10 13 -11 0 -1 -8 -1 -21 0 -27 1 -8 -8 -12 -24 -11 -14
1 -25 6 -25 11 0 5 7 7 15 3 15 -5 21 5 9 17 -10 10 -42 -15 -37 -29 2 -6 0
-15 -6 -19 -6 -3 -11 -1 -11 5 0 6 -5 8 -10 5 -6 -4 -8 -10 -5 -15 11 -17 -17
-21 -35 -5 -17 15 -19 15 -25 -4 -7 -22 -27 -30 -21 -8 1 6 1 9 -1 4 -3 -4 -9
-5 -13 -2 -5 3 -12 0 -16 -6 -4 -8 -3 -9 4 -5 7 4 12 2 12 -3 0 -8 110 -11
350 -11 l350 0 0 207 c0 113 -3 203 -7 199 -4 -3 -13 4 -20 16 -7 13 -12 18
-13 13z"/>
<path d="M122 284 c-45 -14 -72 -34 -72 -56 0 -10 -2 -10 -9 1 -7 11 -10 9
-16 -8 -3 -11 -11 -21 -16 -21 -10 0 -13 -159 -3 -184 5 -13 23 -16 91 -16 48
0 82 4 79 9 -4 5 -1 11 6 13 8 3 6 7 -5 11 -10 4 -17 2 -17 -6 0 -7 -14 -14
-30 -15 -28 -2 -30 -1 -20 18 9 16 19 20 50 18 21 -2 38 -5 38 -8 -1 -18 4
-21 17 -10 12 10 15 10 15 -3 0 -10 -7 -15 -20 -12 -11 2 -20 0 -20 -6 0 -14
36 -11 49 4 6 8 8 17 4 20 -3 4 -1 7 5 7 7 0 12 7 12 16 0 13 3 14 14 5 11 -9
16 -9 22 0 4 8 3 9 -4 5 -7 -4 -12 -1 -12 9 0 9 4 14 8 11 5 -3 9 1 9 8 0 7
-6 13 -13 13 -7 0 -11 -3 -9 -7 2 -3 -5 -14 -15 -23 -11 -9 -22 -12 -25 -7 -4
6 -1 10 5 10 6 0 8 5 4 12 -5 7 -3 8 6 3 9 -6 11 -4 6 4 -5 7 -14 10 -22 7 -8
-3 -14 -1 -14 3 0 11 29 23 39 16 4 -2 8 2 8 10 0 8 -4 12 -8 9 -4 -2 -10 0
-14 6 -3 5 -1 11 4 11 6 1 16 3 21 4 6 1 15 3 22 4 6 0 8 4 5 7 -3 4 -2 15 3
25 8 14 6 19 -11 24 -11 4 -18 12 -16 19 3 6 -2 21 -10 31 -11 13 -14 15 -10
4 3 -9 -1 -16 -9 -16 -8 0 -13 6 -10 13 3 8 0 16 -6 20 -6 4 -8 3 -5 -3 7 -12
-45 -15 -53 -4 -3 4 -24 2 -48 -5z"/>
</g>
</svg>
